<?xml version="1.0" encoding="utf-8"?>
<!-- Generator: Adobe Illustrator 17.0.0, SVG Export Plug-In . SVG Version: 6.00 Build 0)  -->
<!DOCTYPE svg PUBLIC "-//W3C//DTD SVG 1.1//EN" "http://www.w3.org/Graphics/SVG/1.1/DTD/svg11.dtd">
<svg version="1.1" id="Layer_1" xmlns="http://www.w3.org/2000/svg" xmlns:xlink="http://www.w3.org/1999/xlink" x="0px" y="0px"
	 width="380px" height="380px" viewBox="0 0 380 380" enable-background="new 0 0 380 380" xml:space="preserve">
<g>
	<g>
		<g>
			<path fill="#FFFFFF" d="M377.42,189.996c0,103.521-83.905,187.424-187.405,187.424c-103.519,0-187.436-83.903-187.436-187.424
				C2.579,86.476,86.497,2.579,190.015,2.579C293.516,2.579,377.42,86.476,377.42,189.996"/>
		</g>
		<path fill="#016B4F" d="M190.016,380C85.24,380,0,294.765,0,189.996C0,85.232,85.24,0,190.016,0C294.773,0,380,85.232,380,189.996
			C380,294.765,294.773,380,190.016,380z M190.016,5.158C88.085,5.158,5.158,88.076,5.158,189.996
			c0,101.924,82.926,184.846,184.857,184.846c101.914,0,184.826-82.922,184.826-184.846C374.842,88.076,291.929,5.158,190.016,5.158
			z"/>
	</g>
	<g>
		<g>
			<g>
				<g>
					<path fill="#016B4F" d="M43.051,208.617l0.376,2.18c0.431,2.476,2.1,3.713,4.052,3.381c2.297-0.4,2.962-2.131,2.549-4.538
						c-0.179-1.114-0.388-1.755-0.542-2.075L43.051,208.617z M33.524,210.243c0,0.492,0.099,1.158,0.24,2.001
						c0.413,2.463,1.78,4.575,4.693,4.107c2.673-0.468,3.455-2.851,2.993-5.443l-0.333-1.952L33.524,210.243z M50.773,204.867
						c0.443,0.998,0.924,2.648,1.188,4.28c0.425,2.371,0.234,3.997-0.573,5.283c-0.573,1.102-1.663,1.896-3.227,2.137
						c-1.946,0.326-3.849-0.585-4.933-2.377h-0.092c-0.135,1.841-1.324,4.15-4.298,4.68c-1.693,0.271-3.11-0.16-4.243-0.918
						c-1.497-1.059-2.432-3.036-2.944-6.034c-0.302-1.65-0.388-2.925-0.413-3.725L50.773,204.867z"/>
				</g>
				<g>
					<path fill="#016B4F" d="M37.837,219.133c-1.195,0-2.322-0.351-3.344-1.028c-1.509-1.071-2.494-3.085-3.024-6.158
						c-0.228-1.287-0.363-2.518-0.406-3.75l-0.006-0.154l0.148-0.025l19.675-3.35l0.062,0.123c0.48,1.09,0.948,2.795,1.201,4.329
						c0.425,2.402,0.234,4.07-0.604,5.406c-0.622,1.207-1.786,1.976-3.35,2.217c-0.265,0.049-0.536,0.068-0.807,0.068
						c-1.626,0-3.141-0.825-4.114-2.235c-0.259,1.823-1.527,3.959-4.403,4.47C38.514,219.102,38.175,219.133,37.837,219.133
						 M31.42,208.345c0.049,1.158,0.179,2.321,0.4,3.541c0.517,2.974,1.453,4.914,2.87,5.924c1.244,0.831,2.648,1.114,4.12,0.887
						c2.864-0.511,4.027-2.753,4.144-4.52l0.012-0.166h0.363l0.055,0.086c0.893,1.472,2.383,2.358,3.997,2.358
						c0.253,0,0.505-0.018,0.745-0.062c1.453-0.222,2.525-0.93,3.104-2.051c0.794-1.262,0.961-2.851,0.567-5.166
						c-0.24-1.447-0.677-3.042-1.133-4.113L31.42,208.345z M37.67,216.596c-2.137,0-3.621-1.57-4.071-4.323
						c-0.179-0.961-0.246-1.57-0.246-2.032v-0.148l0.148-0.024l7.759-1.318l0.363,2.131c0.296,1.656,0.068,3.128-0.64,4.144
						c-0.567,0.801-1.41,1.305-2.5,1.503C38.206,216.578,37.929,216.596,37.67,216.596 M33.704,210.395
						c0.019,0.419,0.099,0.997,0.24,1.823c0.253,1.503,1.065,4.021,3.726,4.021c0.24,0,0.499-0.018,0.757-0.062
						c0.992-0.173,1.755-0.628,2.266-1.361c0.647-0.936,0.862-2.315,0.585-3.873l-0.308-1.786L33.704,210.395z M46.858,214.41
						c-1.848,0-3.227-1.379-3.615-3.584l-0.394-2.352l0.166-0.03l6.564-1.084l0.062,0.123c0.154,0.314,0.369,0.93,0.56,2.13
						c0.222,1.287,0.123,2.34-0.271,3.128c-0.443,0.868-1.262,1.41-2.42,1.607C47.289,214.385,47.068,214.41,46.858,214.41
						 M43.256,208.763l0.339,2.001c0.357,2.026,1.607,3.282,3.264,3.282c0.197,0,0.388-0.012,0.597-0.043
						c1.041-0.185,1.768-0.665,2.149-1.422c0.376-0.72,0.456-1.699,0.24-2.913c-0.166-1.041-0.345-1.619-0.468-1.909L43.256,208.763
						z"/>
				</g>
				<g>
					<path fill="#016B4F" d="M44.59,230.796l5.136-3.245c1.164-0.702,2.254-1.293,3.319-1.854l-0.031-0.086
						c-1.195,0.062-2.494,0.086-3.769,0.062l-6.109-0.333L44.59,230.796z M41.019,225.396l-6.639-0.252l-0.616-2.432l21.122,1.016
						l0.745,2.845l-17.846,11.287l-0.677-2.494l5.629-3.553L41.019,225.396z"/>
				</g>
				<g>
					<path fill="#016B4F" d="M37.674,238.145l-0.77-2.857l0.111-0.074l5.511-3.479l-1.644-6.164l-6.645-0.253l-0.031-0.135
						l-0.671-2.654l0.24,0.006l21.258,1.016l0.025,0.129l0.776,2.974l-0.105,0.068L37.674,238.145z M37.323,235.442l0.567,2.137
						l17.538-11.084l-0.671-2.598l-20.759-0.997l0.517,2.069l6.645,0.253l0.025,0.129l1.761,6.539l-0.111,0.074L37.323,235.442z
						 M44.485,231.076l-1.589-5.93l0.246,0.012l6.115,0.333c1.226,0.024,2.513,0.006,3.75-0.062l0.135-0.006l0.117,0.357
						l-0.129,0.074c-0.881,0.462-2.057,1.09-3.307,1.848L44.485,231.076z M43.364,225.534l1.336,4.982l4.933-3.116
						c1.035-0.622,2.008-1.158,2.808-1.583c-1.059,0.043-2.131,0.062-3.196,0.037L43.364,225.534z"/>
				</g>
				<g>
					<path fill="#016B4F" d="M39.046,241.704l18.918-7.001l0.942,2.482l-7.47,9.125c-1.724,2.106-3.295,3.836-4.97,5.363
						l0.062,0.086c2.451-1.096,4.729-2.069,7.636-3.128l7.969-2.931l0.782,2.124l-18.912,7.001l-0.831-2.272l7.482-9.131
						c1.632-1.983,3.356-3.941,5.087-5.56l-0.074-0.068c-2.34,0.997-4.594,1.853-7.722,3.017l-8.079,2.999L39.046,241.704z"/>
				</g>
				<g>
					<path fill="#016B4F" d="M43.893,255.051l-0.924-2.537l0.055-0.074l7.482-9.132c1.749-2.118,3.227-3.75,4.588-5.08
						c-2.18,0.911-4.348,1.73-7.088,2.753l-8.24,3.054l-0.948-2.432l0.166-0.068l19.078-7.057l1.047,2.734l-0.062,0.086
						l-7.482,9.125c-1.595,1.952-3.018,3.516-4.428,4.864c2.334-1.028,4.391-1.89,6.965-2.826l8.129-2.986l0.911,2.457l-0.16,0.062
						L43.893,255.051z M43.37,252.588l0.739,2.008l18.579-6.878l-0.659-1.786l-7.803,2.869c-2.814,1.022-5.007,1.952-7.63,3.122
						l-0.142,0.055l-0.216-0.332l0.105-0.105c1.583-1.447,3.153-3.146,4.945-5.345l7.408-9.045l-0.837-2.217l-18.579,6.872
						l0.69,1.774l7.907-2.931c3.005-1.121,5.321-1.995,7.722-3.017l0.105-0.049l0.302,0.277l-0.148,0.135
						c-1.497,1.398-3.116,3.165-5.074,5.542L43.37,252.588z"/>
				</g>
				<g>
					<path fill="#016B4F" d="M53.467,272.299c-0.881-0.77-2.439-2.42-3.572-4.692c-1.262-2.512-1.626-4.951-0.776-7.408
						c0.776-2.198,2.747-4.255,5.573-5.671c5.388-2.654,11.054-1.133,13.874,4.458c0.973,1.946,1.305,3.701,1.281,4.606
						l-2.174,0.406c0-1.139-0.24-2.383-1.096-4.089c-2.026-4.076-6.097-5.382-10.635-3.128c-4.588,2.266-5.986,6.102-4.04,10.03
						c0.696,1.429,1.423,2.278,1.94,2.617l5.37-2.642l-1.706-3.375l1.903-0.905l2.746,5.499L53.467,272.299z"/>
				</g>
				<g>
					<path fill="#016B4F" d="M53.443,272.512l-0.092-0.08c-0.523-0.456-2.34-2.161-3.615-4.747
						c-1.355-2.685-1.607-5.148-0.788-7.543c0.813-2.303,2.826-4.347,5.665-5.776c1.743-0.85,3.498-1.287,5.228-1.287
						c3.775,0,7.02,2.125,8.886,5.831c0.998,2.007,1.324,3.781,1.293,4.686l-0.006,0.148l-0.135,0.025l-2.383,0.449v-0.216
						c0-1.28-0.332-2.512-1.078-4.015c-1.318-2.654-3.529-4.119-6.201-4.119c-1.342,0-2.753,0.357-4.194,1.078
						c-2.309,1.139-3.855,2.716-4.483,4.563c-0.554,1.619-0.369,3.43,0.517,5.228c0.566,1.158,1.232,2.069,1.792,2.488l5.117-2.512
						l-1.7-3.387l2.217-1.047l2.913,5.807l-0.16,0.086L53.443,272.512z M59.842,253.436c-1.675,0-3.381,0.419-5.062,1.256
						c-2.722,1.354-4.717,3.387-5.493,5.566c-0.794,2.291-0.542,4.673,0.77,7.272c1.188,2.396,2.839,4.009,3.449,4.557l8.412-4.157
						l-2.593-5.185l-1.577,0.751l1.706,3.374l-0.166,0.08l-5.462,2.685l-0.08-0.056c-0.653-0.425-1.373-1.404-2.001-2.685
						c-0.936-1.884-1.127-3.793-0.542-5.505c0.653-1.934,2.266-3.584,4.662-4.766c1.49-0.745,2.956-1.114,4.354-1.114
						c2.814,0,5.136,1.533,6.522,4.322c0.727,1.459,1.078,2.697,1.115,3.953l1.817-0.345c-0.012-0.96-0.394-2.641-1.262-4.378
						C66.603,255.486,63.481,253.436,59.842,253.436"/>
				</g>
				<g>
					<polygon fill="#016B4F" points="72.375,266.31 73.662,268.441 58.34,277.757 62.583,284.568 60.717,285.737 55.181,276.871 
											"/>
				</g>
				<g>
					<path fill="#016B4F" d="M60.662,285.987l-0.092-0.154l-5.635-9.027l0.154-0.086l17.348-10.658l1.466,2.438l-0.142,0.092
						l-15.168,9.23l4.231,6.798l-0.142,0.098L60.662,285.987z M55.427,276.93l5.351,8.565l1.558-0.985l-4.237-6.81l0.148-0.092
						l15.174-9.23l-1.109-1.823L55.427,276.93z"/>
				</g>
				<g>
					<path fill="#016B4F" d="M75.225,291.267l3.51-4.92c0.807-1.114,1.601-2.057,2.346-2.937l-0.043-0.068
						c-1.047,0.468-2.26,0.967-3.467,1.416l-5.789,2.044L75.225,291.267z M69.873,287.621l-6.257,2.186l-1.54-1.934l20.014-6.989
						l1.761,2.309l-12.249,17.149l-1.564-2.057l3.843-5.376L69.873,287.621z"/>
				</g>
				<g>
					<path fill="#016B4F" d="M71.618,300.644l-1.804-2.346l0.08-0.111l3.769-5.271l-3.855-5.086l-6.251,2.192l-0.08-0.105
						l-1.687-2.13l0.228-0.08l20.137-7.032l1.921,2.512l-0.08,0.111L71.618,300.644z M70.257,298.285l1.349,1.761l12.027-16.847
						l-1.607-2.099l-19.645,6.859l1.299,1.638l6.25-2.186l0.08,0.105l4.095,5.394l-0.08,0.105L70.257,298.285z M75.227,291.567
						l-3.744-4.846l0.234-0.086l5.795-2.044c1.139-0.425,2.334-0.911,3.449-1.416l0.129-0.056l0.222,0.302l-0.092,0.105
						c-0.782,0.923-1.552,1.841-2.34,2.925L75.227,291.567z M72.074,286.888l3.141,4.077l3.381-4.717
						c0.671-0.93,1.318-1.73,1.983-2.512c-0.961,0.425-1.971,0.831-2.95,1.194L72.074,286.888z"/>
				</g>
				<g>
					<path fill="#016B4F" d="M77.51,303.907c0.351,0.505,0.955,1.139,1.614,1.841c3.572,3.774,7.778,3.651,11.762-0.049
						c3.51-3.264,3.947-7.112,0.4-10.813c-0.856-0.893-1.601-1.453-2.143-1.816L77.51,303.907z M88.816,289.966
						c1.213,0.911,2.574,2.057,3.898,3.467c2.395,2.512,3.498,4.877,3.424,7.179c0,2.34-1.041,4.661-3.424,6.878
						c-2.402,2.248-5.031,3.35-7.556,3.35c-2.623,0-5.37-1.392-7.888-4.027c-1.201-1.268-2.155-2.346-2.876-3.374L88.816,289.966z"
						/>
				</g>
				<g>
					<path fill="#016B4F" d="M85.16,311.016c-2.691,0-5.468-1.41-8.024-4.082c-1.373-1.453-2.235-2.469-2.882-3.393l-0.086-0.129
						l0.111-0.111l14.527-13.571l0.117,0.092c1.497,1.133,2.784,2.266,3.917,3.485c2.414,2.531,3.553,4.914,3.486,7.309
						c0,2.494-1.176,4.858-3.492,7.007C90.462,309.84,87.814,311.016,85.16,311.016 M74.635,303.461
						c0.628,0.875,1.453,1.854,2.765,3.233c2.482,2.592,5.161,3.965,7.759,3.965c2.562,0,5.124-1.139,7.427-3.301
						c2.242-2.075,3.381-4.347,3.381-6.748c0.068-2.297-1.041-4.6-3.387-7.063c-1.096-1.164-2.322-2.266-3.75-3.343L74.635,303.461z
						 M84.784,308.701L84.784,308.701c-2.063,0-4.015-0.954-5.795-2.839l-0.142-0.154c-0.597-0.628-1.158-1.225-1.49-1.699
						l-0.086-0.129l0.117-0.104l11.731-10.936l0.117,0.08c0.733,0.486,1.465,1.108,2.18,1.841c1.718,1.798,2.562,3.658,2.5,5.548
						c-0.061,1.927-1.035,3.78-2.913,5.523C88.953,307.735,86.853,308.701,84.784,308.701 M77.745,303.929
						c0.32,0.431,0.825,0.967,1.355,1.533l0.154,0.16c1.706,1.804,3.565,2.728,5.53,2.728c1.983,0,3.997-0.942,5.98-2.783
						c1.804-1.675,2.747-3.448,2.796-5.271c0.055-1.786-0.751-3.565-2.396-5.289c-0.665-0.677-1.336-1.25-2.007-1.712
						L77.745,303.929z"/>
				</g>
				<g>
					<polygon fill="#016B4F" points="101.987,316.797 96.42,312.111 91.703,317.555 97.91,322.813 96.488,324.494 88.396,317.616 
						101.543,302.438 109.303,309.032 107.892,310.695 101.987,305.671 97.836,310.473 103.397,315.172 					"/>
				</g>
				<g>
					<path fill="#016B4F" d="M96.506,324.746l-0.135-0.111l-8.227-7.001l0.117-0.136l13.271-15.314l0.129,0.117l7.895,6.712
						l-1.638,1.934l-5.918-5.025l-3.91,4.532l5.561,4.704l-0.123,0.129l-1.521,1.755l-0.142-0.105l-5.419-4.581l-4.489,5.179
						l6.207,5.259l-0.123,0.129L96.506,324.746z M88.648,317.597l7.821,6.644l1.188-1.41l-6.207-5.259l0.123-0.129l4.828-5.579
						l0.135,0.111l5.425,4.575l1.182-1.361l-5.561-4.698l0.117-0.135l4.262-4.938l0.135,0.117l5.776,4.908l1.176-1.391l-7.482-6.361
						L88.648,317.597z"/>
				</g>
				<g>
					<path fill="#016B4F" d="M101.542,324.338c0.468,1.262,1.416,2.599,2.789,3.572c2.032,1.435,4.015,1.146,5.241-0.517
						c1.053-1.515,0.85-2.949-0.634-5.24c-1.823-2.771-2.371-5.265-0.733-7.512c1.811-2.543,5.148-3.048,8.147-0.936
						c1.57,1.072,2.439,2.254,2.796,3.177l-1.767,1.312c-0.24-0.64-0.973-1.829-2.334-2.789c-2.1-1.484-3.861-0.702-4.656,0.382
						c-1.102,1.527-0.684,2.937,0.794,5.283c1.829,2.943,2.205,5.148,0.505,7.549c-1.811,2.518-5.124,3.522-8.763,0.967
						c-1.484-1.035-2.759-2.648-3.165-3.818L101.542,324.338z"/>
				</g>
				<g>
					<path fill="#016B4F" d="M107.122,331.248c-1.416,0-2.864-0.511-4.305-1.521c-1.429-0.998-2.783-2.642-3.227-3.898l-0.043-0.123
						l2.082-1.663l0.08,0.234c0.493,1.33,1.484,2.604,2.734,3.485c0.813,0.579,1.669,0.887,2.457,0.887
						c0.992,0,1.872-0.468,2.525-1.367c0.992-1.423,0.819-2.795-0.634-5.037c-2.051-3.122-2.291-5.566-0.733-7.709
						c1.071-1.502,2.648-2.333,4.44-2.333c1.336,0,2.704,0.468,3.96,1.361c1.872,1.28,2.599,2.586,2.864,3.251l0.043,0.129
						l-0.105,0.08l-1.964,1.453l-0.08-0.222c-0.259-0.696-1.01-1.816-2.272-2.709c-0.733-0.523-1.472-0.788-2.186-0.788
						c-0.868,0-1.7,0.425-2.223,1.139c-0.967,1.336-0.776,2.58,0.813,5.074c1.977,3.202,2.112,5.449,0.493,7.752
						C110.657,330.349,108.988,331.248,107.122,331.248 M99.966,325.829c0.468,1.176,1.73,2.679,3.054,3.609
						c1.386,0.967,2.759,1.453,4.101,1.453c1.743,0,3.313-0.837,4.428-2.371c1.552-2.198,1.404-4.261-0.505-7.358
						c-1.447-2.272-1.995-3.818-0.801-5.474c0.591-0.807,1.534-1.281,2.513-1.281c0.788,0,1.595,0.283,2.389,0.85
						c1.207,0.85,1.97,1.915,2.309,2.66l1.478-1.096c-0.289-0.653-0.992-1.817-2.679-2.968c-1.207-0.844-2.5-1.287-3.757-1.287
						c-1.669,0-3.153,0.77-4.15,2.174c-1.459,2.007-1.226,4.329,0.739,7.315c1.533,2.358,1.706,3.885,0.634,5.443
						c-0.733,0.991-1.706,1.515-2.82,1.515c-0.862,0-1.786-0.333-2.666-0.961c-1.232-0.868-2.229-2.106-2.765-3.423L99.966,325.829z
						"/>
				</g>
				<g>
					<polygon fill="#016B4F" points="124.443,319.347 120.378,326.668 128.359,331.047 132.43,323.725 134.61,324.901 
						124.837,342.413 122.675,341.231 127.263,333.029 119.233,328.67 114.688,336.835 112.52,335.702 122.287,318.189 					"/>
				</g>
				<g>
					<path fill="#016B4F" d="M124.91,342.654l-2.475-1.355l4.582-8.202l-7.71-4.187l-4.545,8.165l-0.16-0.086l-2.322-1.213
						l9.939-17.826l0.154,0.086l2.316,1.238l-4.071,7.328l7.673,4.206l4.071-7.322l2.494,1.349L124.91,342.654z M122.915,341.157
						l1.854,1.016l9.594-17.198l-1.86-1.01l-4.077,7.322l-0.16-0.08l-8.129-4.464l4.064-7.322l-1.841-0.985l-9.594,17.198
						l1.847,0.961l4.557-8.165l0.148,0.08l8.19,4.446L122.915,341.157z"/>
				</g>
			</g>
			<g>
				<g>
					<path fill="#016B4F" d="M142.292,337.268l2.106,0.708c2.396,0.869,4.323,0,4.945-1.829c0.813-2.161-0.425-3.62-2.783-4.439
						c-1.035-0.382-1.693-0.487-2.069-0.505L142.292,337.268z M139.09,346.277c0.45,0.234,1.078,0.468,1.897,0.757
						c2.377,0.838,4.908,0.684,5.881-2.032c0.899-2.562-0.794-4.335-3.301-5.271l-1.921-0.653L139.09,346.277z M142.761,328.74
						c1.096,0.123,2.765,0.505,4.354,1.072c2.272,0.794,3.633,1.706,4.391,3.042c0.647,1.072,0.819,2.383,0.289,3.848
						c-0.659,1.847-2.408,3.03-4.477,3.116l-0.025,0.062c1.527,0.991,2.993,3.196,1.977,5.985c-0.566,1.577-1.601,2.642-2.864,3.227
						c-1.65,0.763-3.861,0.634-6.762-0.4c-1.589-0.542-2.765-1.041-3.51-1.423L142.761,328.74z"/>
				</g>
				<g>
					<path fill="#016B4F" d="M143.973,349.757c-1.263,0-2.691-0.295-4.391-0.899c-1.416-0.48-2.666-0.991-3.529-1.435l-0.135-0.074
						l0.049-0.142l6.676-18.657l0.129,0.012c1.225,0.136,2.913,0.542,4.403,1.078c2.371,0.825,3.701,1.761,4.483,3.122
						c0.714,1.176,0.819,2.556,0.302,4.003c-0.634,1.786-2.235,2.986-4.231,3.202c1.558,1.188,2.63,3.417,1.706,5.96
						c-0.548,1.533-1.577,2.679-2.956,3.325C145.753,349.591,144.915,349.757,143.973,349.757 M136.355,347.177
						c0.837,0.419,2.014,0.893,3.35,1.348c2.826,1.004,5.025,1.133,6.62,0.4c1.299-0.603,2.254-1.675,2.771-3.122
						c0.93-2.543-0.289-4.729-1.897-5.776l-0.129-0.08l0.123-0.308l0.111-0.006c2.038-0.074,3.695-1.226,4.323-2.993
						c0.48-1.342,0.382-2.617-0.277-3.701c-0.733-1.28-2.014-2.167-4.298-2.962c-1.386-0.499-3.005-0.905-4.169-1.047
						L136.355,347.177z M143.363,347.663L143.363,347.663c-0.751,0-1.57-0.154-2.439-0.462c-0.739-0.259-1.441-0.517-1.915-0.77
						l-0.142-0.074l2.673-7.506l0.16,0.056l1.928,0.659c3.005,1.114,4.243,3.116,3.405,5.492
						C146.43,346.764,145.155,347.663,143.363,347.663 M139.311,346.185c0.45,0.222,1.078,0.443,1.737,0.678
						c0.825,0.295,1.601,0.437,2.316,0.437c1.644,0,2.777-0.788,3.338-2.358c1.078-3.073-1.872-4.557-3.196-5.043l-1.749-0.591
						L139.311,346.185z M146.19,338.495L146.19,338.495c-0.591,0-1.219-0.123-1.854-0.351l-2.272-0.77l0.061-0.166l2.242-6.188
						l0.129,0.006c0.394,0.018,1.072,0.123,2.131,0.517c1.478,0.518,2.445,1.25,2.894,2.174c0.332,0.739,0.332,1.57-0.012,2.494
						C149.029,337.639,147.779,338.495,146.19,338.495 M142.52,337.158l1.927,0.647c0.61,0.222,1.195,0.333,1.743,0.333
						c1.429,0,2.549-0.77,2.987-2.051c0.314-0.831,0.32-1.577,0.018-2.217c-0.394-0.837-1.299-1.509-2.691-1.989
						c-0.905-0.339-1.515-0.456-1.89-0.492L142.52,337.158z"/>
				</g>
				<g>
					<path fill="#016B4F" d="M158.806,333.574l-2.537,11.583c-0.961,4.341,0.468,6.601,2.925,7.093
						c2.746,0.591,4.914-0.923,5.869-5.215l2.525-11.545l2.402,0.493l-2.5,11.385c-1.299,5.979-4.809,7.795-8.806,6.977
						c-3.824-0.856-6.14-3.682-4.816-9.803l2.512-11.484L158.806,333.574z"/>
				</g>
				<g>
					<path fill="#016B4F" d="M160.431,354.702c-0.566,0-1.17-0.055-1.78-0.185c-3.098-0.69-6.472-2.987-4.957-10.012l2.549-11.656
						l2.777,0.585l-0.043,0.179l-2.531,11.582c-0.517,2.291-0.363,4.132,0.425,5.345c0.53,0.813,1.318,1.33,2.353,1.539
						c2.826,0.61,4.803-1.176,5.665-5.086l2.562-11.718l2.759,0.566l-0.043,0.172l-2.494,11.391
						C166.355,353.439,163.005,354.702,160.431,354.702 M156.52,333.267l-2.476,11.312c-1.17,5.412,0.406,8.633,4.68,9.593
						c0.585,0.117,1.164,0.179,1.706,0.179c3.504,0,5.887-2.432,6.891-7.019l2.451-11.213l-2.051-0.419l-2.482,11.367
						c-1.01,4.538-3.245,5.486-4.957,5.486c-0.357,0-0.739-0.043-1.127-0.129c-1.121-0.222-2.007-0.813-2.586-1.687
						c-0.856-1.318-1.01-3.208-0.468-5.616l2.488-11.41L156.52,333.267z"/>
				</g>
				<g>
					<path fill="#016B4F" d="M174.925,345.926l2.475,0.166c2.624,0.216,4.397-1.127,4.588-3.393c0.209-2.58-1.459-3.855-4.034-4.064
						c-1.17-0.104-1.977-0.043-2.42,0.025L174.925,345.926z M173.257,336.665c1.269-0.129,3.079-0.191,4.723-0.061
						c2.593,0.228,4.268,0.911,5.314,2.149c0.862,0.905,1.306,2.352,1.17,3.867c-0.234,2.623-1.977,4.23-3.984,4.772v0.099
						c1.379,0.646,2.112,2.149,2.402,4.267c0.363,2.777,0.665,4.766,0.955,5.566l-2.506-0.216c-0.252-0.585-0.523-2.34-0.819-4.87
						c-0.314-2.796-1.281-3.923-3.473-4.181l-2.297-0.197l-0.745,8.614l-2.433-0.203L173.257,336.665z"/>
				</g>
				<g>
					<path fill="#016B4F" d="M184.087,357.525l-0.271-0.018l-2.611-0.228l-0.043-0.098c-0.24-0.56-0.499-2.075-0.825-4.92
						c-0.302-2.685-1.207-3.781-3.313-4.033l-2.112-0.172l-0.757,8.608l-0.179-0.006l-2.605-0.228l0.018-0.179l1.706-19.747
						l0.142-0.012c1.459-0.16,3.301-0.179,4.76-0.068c2.636,0.234,4.36,0.942,5.438,2.217c0.893,0.942,1.342,2.438,1.207,3.996
						c-0.21,2.346-1.626,4.131-3.806,4.834c1.195,0.708,1.927,2.1,2.229,4.267c0.289,2.241,0.628,4.649,0.936,5.53L184.087,357.525z
						 M181.452,356.94l2.131,0.191c-0.234-0.837-0.505-2.488-0.875-5.345c-0.302-2.198-1.059-3.553-2.303-4.131l-0.105-0.049v-0.351
						l0.129-0.037c2.211-0.585,3.652-2.321,3.861-4.618c0.123-1.453-0.296-2.851-1.121-3.726c-1.016-1.201-2.673-1.866-5.204-2.087
						c-1.386-0.123-3.135-0.098-4.545,0.043l-1.669,19.279l2.075,0.172l0.757-8.608l0.173,0.012l2.297,0.191
						c2.297,0.277,3.319,1.49,3.627,4.347C180.885,353.886,181.168,356.152,181.452,356.94 M177.942,346.293L177.942,346.293
						c-0.179,0-0.369-0.006-0.554-0.018l-2.66-0.178l0.012-0.191l0.634-7.395l0.135-0.025c0.24-0.043,0.646-0.08,1.238-0.08
						c0.382,0,0.801,0.018,1.226,0.049c1.379,0.117,2.439,0.511,3.171,1.195c0.776,0.739,1.127,1.767,1.022,3.066
						C181.981,344.92,180.362,346.293,177.942,346.293 M175.115,345.758l2.297,0.154c0.179,0.018,0.363,0.025,0.53,0.025
						c2.211,0,3.701-1.244,3.873-3.251c0.098-1.182-0.216-2.118-0.924-2.777c-0.665-0.622-1.65-0.985-2.95-1.09
						c-0.419-0.043-0.825-0.062-1.195-0.062c-0.468,0-0.813,0.031-1.041,0.062L175.115,345.758z"/>
				</g>
				<g>
					<polygon fill="#016B4F" points="197.601,347.717 190.273,347.872 190.463,355.076 198.629,354.897 198.691,357.034 
						188.031,357.33 187.538,337.348 197.773,337.108 197.835,339.251 190.057,339.479 190.193,345.747 197.533,345.563 					"/>
				</g>
				<g>
					<path fill="#016B4F" d="M187.862,357.506l-0.006-0.173l-0.505-20.16l0.185-0.006l10.42-0.24l0.062,2.5l-0.179,0.006
						l-7.599,0.221l0.129,5.911l7.334-0.185l0.086,2.512l-0.185,0.006l-7.156,0.148l0.185,6.847l8.166-0.178l0.006,0.172
						l0.068,2.315l-0.185,0.006L187.862,357.506z M187.72,337.525l0.493,19.624l10.29-0.289l-0.055-1.78l-8.166,0.179v-0.172
						l-0.197-7.389l0.179-0.006l7.15-0.148l-0.049-1.798l-7.347,0.179v-0.172l-0.142-6.447l0.179-0.006l7.593-0.222l-0.043-1.786
						L187.72,337.525z"/>
				</g>
				<g>
					<path fill="#016B4F" d="M211.36,347.267l-2.673-5.443c-0.566-1.287-1.016-2.371-1.459-3.51l-0.08,0.031
						c-0.061,1.182-0.222,2.457-0.406,3.707l-1.029,5.955L211.36,347.267z M205.473,350.087l-1.059,6.497l-2.5,0.32l3.584-20.646
						l2.944-0.419l9.157,18.953l-2.593,0.326l-2.882-5.967L205.473,350.087z"/>
				</g>
				<g>
					<path fill="#016B4F" d="M201.697,357.115l0.049-0.24l3.603-20.775l3.202-0.456l0.049,0.111l9.262,19.181l-2.962,0.376
						l-0.055-0.111l-2.82-5.856l-6.398,0.899l-1.059,6.502l-0.129,0.012L201.697,357.115z M205.651,336.413l-3.522,20.283
						l2.131-0.277l1.065-6.49l6.909-0.973l0.055,0.117l2.82,5.856l2.217-0.283l-8.991-18.62L205.651,336.413z M205.497,348.217
						l1.072-6.194c0.216-1.453,0.345-2.666,0.406-3.694v-0.111l0.351-0.142l0.068,0.173c0.474,1.194,0.899,2.247,1.459,3.503
						l2.777,5.659l-0.246,0.031L205.497,348.217z M207.289,338.95c-0.074,0.899-0.191,1.928-0.376,3.128l-0.985,5.72l5.16-0.677
						l-2.562-5.222C208.059,340.847,207.677,339.923,207.289,338.95"/>
				</g>
				<g>
					<path fill="#016B4F" d="M218.282,334.056l3.03,11.509c1.158,4.267,3.479,5.653,5.906,4.982c2.685-0.714,3.96-3.03,2.814-7.278
						l-3.042-11.447l2.371-0.616l2.987,11.28c1.595,5.942-0.714,9.083-4.68,10.154c-3.738,0.973-7.15-0.554-8.757-6.558
						l-3.011-11.373L218.282,334.056z"/>
				</g>
				<g>
					<path fill="#016B4F" d="M225.675,353.088c-2.315,0-5.394-1.207-6.934-6.958l-3.054-11.545l0.166-0.049l2.562-0.702l0.043,0.173
						l3.024,11.508c0.881,3.233,2.506,5.012,4.594,5.012c0.357,0,0.721-0.049,1.096-0.16c1.152-0.302,2.007-0.911,2.519-1.798
						c0.714-1.238,0.776-3.005,0.173-5.253l-3.091-11.625l0.179-0.049l2.531-0.653l0.049,0.166l2.993,11.28
						c1.453,5.456-0.246,9.144-4.809,10.375C227.011,352.99,226.321,353.088,225.675,353.088 M216.117,334.837l2.956,11.195
						c1.41,5.246,4.428,7.53,8.554,6.429c3.067-0.819,6.343-3.22,4.545-9.926l-2.944-11.114l-2.014,0.524l2.993,11.274
						c0.634,2.346,0.56,4.206-0.209,5.536c-0.56,0.967-1.478,1.626-2.734,1.964c-0.406,0.111-0.801,0.16-1.189,0.16
						c-2.26,0-4.015-1.866-4.939-5.265l-2.974-11.342L216.117,334.837z"/>
				</g>
			</g>
			<g>
				<g>
					<path fill="#016B4F" d="M252.297,341.741c3.492-1.601,3.923-5.905,2.02-10.03c-1.663-3.596-5.173-6.607-8.874-4.932
						c-3.707,1.675-3.855,6.158-2.057,10.055c1.749,3.861,5.376,6.49,8.874,4.932L252.297,341.741z M253.054,343.736
						c-4.551,1.989-9.428-0.308-11.941-5.807c-2.666-5.751-1.047-11.04,3.547-13.097c4.717-2.118,9.502,0.308,11.99,5.72
						c2.876,6.207,0.801,11.164-3.572,13.134L253.054,343.736z"/>
				</g>
				<g>
					<path fill="#016B4F" d="M249.768,344.619c-3.627,0-6.928-2.469-8.819-6.619c-1.429-3.079-1.693-6.182-0.733-8.738
						c0.776-2.075,2.285-3.664,4.372-4.593c1.139-0.518,2.322-0.776,3.486-0.776c3.572,0,6.842,2.463,8.732,6.589
						c1.466,3.159,1.743,6.17,0.801,8.701c-0.77,2.069-2.291,3.67-4.397,4.637l-0.025,0.055l-0.062,0.025
						C252.034,344.379,250.901,344.619,249.768,344.619 M248.074,324.25c-1.121,0-2.242,0.253-3.344,0.745
						c-1.995,0.893-3.443,2.408-4.188,4.396c-0.911,2.463-0.659,5.468,0.733,8.467c1.829,4.009,5.007,6.41,8.492,6.41
						c1.059,0,2.118-0.222,3.153-0.671l0.018-0.043l0.068-0.024c2.045-0.93,3.522-2.469,4.268-4.464
						c0.905-2.45,0.64-5.363-0.794-8.436C254.651,326.633,251.511,324.25,248.074,324.25 M250.156,342.396L250.156,342.396
						c-2.703,0-5.425-2.155-6.928-5.492c-1.207-2.605-1.472-5.253-0.721-7.254c0.517-1.392,1.478-2.408,2.864-3.036
						c0.72-0.32,1.459-0.493,2.205-0.493c3.208,0,5.727,2.974,6.909,5.517c1.188,2.598,1.447,5.234,0.708,7.229
						c-0.511,1.373-1.484,2.42-2.827,3.036l-0.018,0.012C251.628,342.242,250.901,342.396,250.156,342.396 M247.576,326.479
						c-0.69,0-1.392,0.154-2.063,0.462c-1.293,0.585-2.186,1.533-2.679,2.833c-0.714,1.915-0.45,4.464,0.721,6.989
						c1.447,3.202,4.04,5.277,6.601,5.277c0.69,0,1.373-0.142,2.032-0.437l0.012-0.012c1.287-0.591,2.174-1.546,2.66-2.845
						c0.708-1.909,0.456-4.439-0.702-6.964C253.025,329.342,250.618,326.479,247.576,326.479"/>
				</g>
				<g>
					<polygon fill="#016B4F" points="254.558,320.358 263.315,315.204 264.429,317.063 257.778,320.961 261.233,326.645 
						267.348,323.055 268.475,324.89 262.329,328.498 267.003,336.257 264.866,337.513 					"/>
				</g>
				<g>
					<path fill="#016B4F" d="M264.805,337.751l-10.494-17.456l0.154-0.092l8.911-5.24l1.299,2.161l-0.16,0.092l-6.485,3.805
						l3.264,5.382l6.115-3.59l1.305,2.137l-0.16,0.098l-5.979,3.51l4.674,7.759l-0.16,0.098L264.805,337.751z M254.804,320.417
						l10.124,16.854l1.823-1.071l-4.668-7.759l0.154-0.098l5.986-3.51l-0.936-1.539l-6.115,3.59l-0.086-0.154l-3.547-5.831
						l0.16-0.092l6.478-3.806l-0.93-1.558L254.804,320.417z"/>
				</g>
			</g>
			<g>
				<g>
					<path fill="#016B4F" d="M279.238,324.831c1.349-0.111,2.956-0.616,4.304-1.613c2.02-1.545,2.34-3.51,1.072-5.135
						c-1.09-1.478-2.623-1.718-5.278-0.949c-3.215,0.949-5.801,0.733-7.507-1.515c-1.94-2.432-1.367-5.751,1.583-8.023
						c1.533-1.152,2.981-1.638,3.954-1.755l0.739,2.094c-0.696,0.062-2.075,0.394-3.436,1.428c-2.094,1.576-1.884,3.454-1.047,4.557
						c1.139,1.435,2.654,1.484,5.376,0.77c3.405-0.905,5.69-0.634,7.507,1.712c1.891,2.438,1.817,5.905-1.78,8.596
						c-1.478,1.121-3.443,1.89-4.668,1.94L279.238,324.831z"/>
				</g>
				<g>
					<path fill="#016B4F" d="M279.934,327.118l-0.948-2.444l0.234-0.025c1.484-0.111,3.024-0.69,4.225-1.576
						c1.004-0.776,1.601-1.675,1.724-2.611c0.098-0.776-0.142-1.558-0.69-2.272c-0.671-0.905-1.49-1.306-2.642-1.306
						c-0.677,0-1.472,0.136-2.451,0.419c-1.225,0.369-2.291,0.542-3.258,0.542c-1.903,0-3.362-0.69-4.446-2.118
						c-0.899-1.133-1.299-2.469-1.127-3.861c0.203-1.632,1.176-3.196,2.747-4.409c1.872-1.41,3.449-1.724,4.046-1.792l0.142-0.019
						l0.049,0.136l0.807,2.309l-0.228,0.024c-0.283,0.025-1.78,0.203-3.344,1.392c-0.899,0.677-1.429,1.478-1.552,2.315
						c-0.092,0.702,0.098,1.404,0.542,1.989c0.634,0.788,1.398,1.151,2.482,1.151c0.684,0,1.552-0.141,2.703-0.449
						c1.225-0.326,2.26-0.48,3.159-0.48c1.897,0,3.338,0.714,4.532,2.26c0.985,1.268,1.423,2.771,1.219,4.236
						c-0.228,1.706-1.275,3.301-3.03,4.612c-1.435,1.09-3.436,1.921-4.773,1.976H279.934z M279.491,324.987l0.684,1.761
						c1.256-0.092,3.098-0.868,4.44-1.89c1.675-1.256,2.685-2.771,2.901-4.366c0.179-1.379-0.228-2.795-1.158-3.984
						c-1.127-1.466-2.439-2.125-4.249-2.125c-0.862,0-1.872,0.16-3.067,0.474c-1.188,0.314-2.075,0.462-2.796,0.462
						c-1.207,0-2.051-0.4-2.759-1.293c-0.505-0.659-0.721-1.459-0.61-2.254c0.123-0.936,0.708-1.81,1.681-2.555
						c1.17-0.881,2.433-1.312,3.301-1.435l-0.61-1.743c-0.653,0.092-2.063,0.443-3.732,1.699c-1.497,1.152-2.42,2.635-2.605,4.169
						c-0.154,1.293,0.209,2.537,1.047,3.602c1.552,2.026,3.843,2.475,7.328,1.453c1.01-0.295,1.841-0.437,2.549-0.437
						c1.263,0,2.192,0.462,2.919,1.447c0.616,0.782,0.881,1.663,0.764,2.531c-0.129,1.034-0.77,2.026-1.866,2.857
						C282.465,324.237,280.957,324.828,279.491,324.987"/>
				</g>
				<g>
					<polygon fill="#016B4F" points="283.875,302.221 279.57,306.143 278.068,304.518 288.549,295.004 290.027,296.63 
						285.722,300.552 297.866,313.68 296.031,315.306 					"/>
				</g>
				<g>
					<path fill="#016B4F" d="M296.019,315.552l-12.15-13.079l-4.311,3.923l-0.117-0.136l-1.626-1.755l10.746-9.754l1.718,1.89
						l-4.304,3.917l12.15,13.134L296.019,315.552z M283.881,301.968l0.123,0.13l12.039,12.962l1.57-1.392L285.47,300.54l4.304-3.922
						l-1.238-1.361l-10.216,9.273l1.262,1.361L283.881,301.968z"/>
				</g>
				<g>
					<path fill="#016B4F" d="M303.16,296.465l-5.579-2.518c-1.25-0.579-2.309-1.188-3.399-1.78l-0.019,0.111
						c0.678,0.936,1.386,2.007,2.045,3.103l3.048,5.289L303.16,296.465z M300.42,302.438l3.294,5.653l-1.706,1.884l-10.487-18.251
						l2.032-2.186l19.306,8.732l-1.792,1.933l-6.078-2.771L300.42,302.438z"/>
				</g>
				<g>
					<path fill="#016B4F" d="M301.969,310.272l-0.117-0.209l-10.549-18.362l2.205-2.377l0.117,0.055l19.527,8.83l-2.038,2.211
						l-0.123-0.056l-5.955-2.715l-4.397,4.815l3.301,5.653L301.969,310.272z M291.74,291.744l10.303,17.925l1.453-1.601
						l-3.301-5.653l0.092-0.098l4.655-5.098l0.117,0.056l5.967,2.709l1.527-1.65l-18.961-8.578L291.74,291.744z M299.216,300.968
						l-3.159-5.499c-0.628-1.041-1.336-2.112-2.038-3.091l-0.043-0.062l0.08-0.419l0.209,0.111c0.234,0.129,0.468,0.253,0.696,0.382
						c0.837,0.462,1.712,0.942,2.697,1.392l5.807,2.623l-0.172,0.179L299.216,300.968z M294.616,292.606
						c0.61,0.869,1.207,1.78,1.749,2.685l2.919,5.08l3.578-3.842l-5.352-2.42c-0.998-0.456-1.878-0.942-2.728-1.404
						C294.733,292.668,294.671,292.637,294.616,292.606"/>
				</g>
				<g>
					<polygon fill="#016B4F" points="301.851,283.177 298.279,287.753 296.542,286.386 305.219,275.283 306.974,276.613 
						303.402,281.219 317.634,292.094 316.07,294.083 					"/>
				</g>
				<g>
					<path fill="#016B4F" d="M316.089,294.328l-0.129-0.104l-14.071-10.801l-3.584,4.581l-0.142-0.111l-1.866-1.484l8.892-11.373
						l0.135,0.098l1.903,1.441l-3.578,4.612l14.232,10.874l-0.111,0.142L316.089,294.328z M301.814,282.93l0.142,0.105
						l14.078,10.801l1.342-1.712l-14.225-10.874l3.572-4.606l-1.466-1.114l-8.467,10.825l1.453,1.145L301.814,282.93z"/>
				</g>
				<g>
					<polygon fill="#016B4F" points="306.986,272.383 323.706,283.676 322.271,285.739 305.582,274.477 					"/>
				</g>
				<g>
					<path fill="#016B4F" d="M322.323,285.986l-0.148-0.098l-16.836-11.361l1.601-2.389l0.148,0.098l16.861,11.391L322.323,285.986z
						 M305.832,274.428l16.399,11.066l1.219-1.768l-16.418-11.096L305.832,274.428z"/>
				</g>
				<g>
					<path fill="#016B4F" d="M323.235,278.776c1.201-0.579,2.525-1.644,3.405-3.091c1.275-2.161,0.831-4.107-0.905-5.136
						c-1.62-0.954-3.091-0.652-5.265,1.029c-2.648,2.081-5.136,2.814-7.562,1.385c-2.685-1.595-3.418-4.895-1.521-8.054
						c0.998-1.632,2.131-2.629,3.005-3.079l1.472,1.656c-0.64,0.333-1.78,1.115-2.66,2.562c-1.349,2.26-0.456,3.929,0.721,4.618
						c1.638,0.997,3.042,0.48,5.308-1.262c2.82-2.044,5.05-2.611,7.593-1.096c2.667,1.576,3.892,4.797,1.583,8.658
						c-0.936,1.539-2.494,2.962-3.664,3.479L323.235,278.776z"/>
				</g>
				<g>
					<path fill="#016B4F" d="M324.7,280.659l-1.761-1.946l0.209-0.098c1.349-0.646,2.562-1.743,3.331-3.017
						c1.188-2.014,0.868-3.879-0.837-4.895c-1.577-0.924-2.888-0.659-5.068,1.016c-2.944,2.328-5.432,2.759-7.753,1.398
						c-1.287-0.763-2.155-1.896-2.506-3.288c-0.4-1.583-0.074-3.356,0.918-5.006c0.887-1.453,2.008-2.592,3.079-3.146l0.117-0.068
						l1.718,1.934l-0.197,0.098c-0.48,0.253-1.675,0.991-2.587,2.494c-0.591,0.985-0.782,1.94-0.566,2.777
						c0.166,0.665,0.61,1.25,1.225,1.595c0.53,0.327,1.029,0.487,1.54,0.487c0.936,0,1.971-0.499,3.559-1.73
						c1.909-1.373,3.406-1.989,4.853-1.989c0.979,0,1.946,0.289,2.944,0.887c1.385,0.813,2.359,2.063,2.716,3.491
						c0.425,1.662,0.049,3.528-1.078,5.406c-0.911,1.503-2.482,2.993-3.738,3.547L324.7,280.659z M323.524,278.83l1.262,1.398
						c1.176-0.567,2.611-1.958,3.467-3.35c1.072-1.798,1.429-3.572,1.035-5.135c-0.339-1.342-1.25-2.512-2.556-3.282
						c-0.936-0.56-1.835-0.831-2.759-0.831c-1.373,0-2.802,0.585-4.637,1.915c-1.656,1.281-2.753,1.798-3.775,1.798
						c-0.579,0-1.145-0.166-1.724-0.53c-0.69-0.394-1.201-1.059-1.392-1.823c-0.24-0.917-0.031-1.97,0.61-3.036
						c0.85-1.398,1.94-2.174,2.531-2.519l-1.232-1.385c-0.548,0.314-1.7,1.127-2.814,2.949c-0.948,1.57-1.256,3.251-0.881,4.741
						c0.333,1.293,1.139,2.352,2.34,3.066c2.198,1.293,4.508,0.862,7.353-1.367c1.441-1.115,2.543-1.607,3.578-1.607
						c0.634,0,1.256,0.179,1.891,0.56c1.866,1.109,2.248,3.214,0.973,5.382C326.024,277.044,324.848,278.146,323.524,278.83"/>
				</g>
				<g>
					<polygon fill="#016B4F" points="319.11,256.112 316.561,261.346 314.565,260.38 320.785,247.683 322.768,248.655 
						320.2,253.871 336.384,261.642 335.306,263.871 					"/>
				</g>
				<g>
					<path fill="#016B4F" d="M335.388,264.104l-0.16-0.074l-16.036-7.685l-2.549,5.234l-0.154-0.074l-2.168-1.04l0.08-0.16
						l6.306-12.863l2.297,1.133l-0.08,0.16l-2.488,5.049l16.184,7.777L335.388,264.104z M319.026,255.877l0.154,0.074l16.042,7.685
						l0.924-1.909l-16.19-7.777l0.08-0.16l2.488-5.055l-1.657-0.813l-6.066,12.377l1.675,0.813L319.026,255.877z"/>
				</g>
				<g>
					<polygon fill="#016B4F" points="321.913,244.494 340.578,252.141 339.642,254.439 320.964,246.791 					"/>
				</g>
				<g>
					<path fill="#016B4F" d="M339.739,254.676l-0.166-0.074l-18.844-7.716l1.09-2.629l0.154,0.074l18.838,7.715L339.739,254.676z
						 M321.191,246.695l18.351,7.512l0.807-1.97l-18.339-7.506L321.191,246.695z"/>
				</g>
				<g>
					<path fill="#016B4F" d="M346.184,234.512c0.166,0.961,0.037,2.851-0.671,5.043c-1.724,5.117-6.38,7.802-12.704,5.745
						c-5.998-1.982-8.769-7.137-6.916-12.715c0.745-2.235,1.718-3.522,2.297-4.015l1.792,1.225
						c-0.733,0.714-1.478,1.878-1.971,3.356c-1.422,4.242,0.517,7.962,5.542,9.612c4.705,1.576,8.542,0,10.013-4.353
						c0.462-1.459,0.634-3.005,0.462-4.089L346.184,234.512z"/>
				</g>
				<g>
					<path fill="#016B4F" d="M336.892,246.17c-1.306,0-2.697-0.234-4.132-0.702c-3.104-1.022-5.401-2.875-6.645-5.345
						c-1.145-2.285-1.281-4.914-0.388-7.598c0.714-2.143,1.681-3.522,2.346-4.089l0.105-0.086l0.111,0.074l1.977,1.348l-0.154,0.154
						c-0.788,0.763-1.496,1.958-1.934,3.282c-0.646,1.952-0.579,3.818,0.216,5.388c0.899,1.792,2.71,3.171,5.222,3.997
						c1.164,0.394,2.285,0.591,3.331,0.591c3.104,0,5.401-1.718,6.454-4.828c0.443-1.422,0.616-2.956,0.45-4.009l-0.037-0.228
						l2.525,0.228l0.025,0.136c0.16,0.917,0.068,2.814-0.684,5.129C344.276,243.787,341.074,246.17,336.892,246.17 M328.203,228.8
						c-0.628,0.585-1.478,1.872-2.143,3.836c-0.862,2.592-0.733,5.129,0.376,7.328c1.201,2.383,3.43,4.175,6.435,5.166
						c1.392,0.462,2.753,0.69,4.021,0.69c4.021,0,7.1-2.303,8.449-6.318c0.696-2.143,0.807-3.904,0.69-4.828l-1.792-0.154
						c0.117,1.096-0.061,2.549-0.499,3.941c-1.108,3.276-3.522,5.08-6.792,5.08c-1.09,0-2.248-0.209-3.449-0.61
						c-2.599-0.856-4.477-2.297-5.425-4.175c-0.831-1.656-0.917-3.62-0.234-5.658c0.431-1.293,1.108-2.469,1.866-3.276
						L328.203,228.8z"/>
				</g>
				<g>
					<path fill="#016B4F" d="M344.669,230.086c0.985-0.868,1.903-2.297,2.291-3.978c0.548-2.444-0.45-4.162-2.469-4.618
						c-1.798-0.388-3.122,0.333-4.662,2.623c-1.872,2.74-4.034,4.243-6.749,3.633c-3.061-0.727-4.791-3.615-3.972-7.174
						c0.413-1.902,1.232-3.208,1.909-3.898l1.891,1.146c-0.487,0.505-1.336,1.601-1.712,3.282c-0.585,2.512,0.794,3.83,2.143,4.138
						c1.854,0.431,3.005-0.505,4.619-2.826c2.069-2.826,4.009-4.052,6.854-3.393c3.067,0.684,5.259,3.356,4.262,7.747
						c-0.425,1.804-1.466,3.62-2.408,4.464L344.669,230.086z"/>
				</g>
				<g>
					<path fill="#016B4F" d="M346.688,231.448l-0.111-0.062l-2.217-1.268l0.191-0.166c1.047-0.911,1.878-2.364,2.235-3.885
						c0.517-2.309-0.351-3.959-2.334-4.403c-0.296-0.068-0.567-0.098-0.831-0.098c-1.312,0-2.395,0.795-3.646,2.654
						c-2.112,3.079-4.372,4.267-6.94,3.701c-3.233-0.77-4.92-3.806-4.101-7.389c0.505-2.315,1.533-3.553,1.952-3.978l0.098-0.098
						l2.211,1.33l-0.16,0.16c-0.369,0.381-1.281,1.459-1.669,3.202c-0.252,1.071-0.142,2.014,0.308,2.728
						c0.369,0.598,0.992,1.028,1.7,1.188c0.283,0.068,0.542,0.099,0.794,0.099c1.226,0,2.18-0.745,3.646-2.851
						c1.872-2.556,3.535-3.646,5.555-3.646c0.468,0,0.961,0.062,1.478,0.185c1.613,0.357,2.944,1.256,3.744,2.518
						c0.911,1.435,1.133,3.319,0.653,5.443c-0.4,1.718-1.435,3.627-2.457,4.55L346.688,231.448z M344.969,230.05l1.669,0.955
						c0.819-0.788,1.829-2.469,2.26-4.28c0.462-2.02,0.253-3.812-0.61-5.166c-0.757-1.201-1.97-2.02-3.516-2.364
						c-2.605-0.591-4.458,0.308-6.669,3.325c-1.287,1.847-2.396,3.005-3.935,3.005c-0.277,0-0.566-0.037-0.874-0.111
						c-0.794-0.179-1.503-0.671-1.927-1.354c-0.493-0.795-0.616-1.835-0.351-2.999c0.363-1.583,1.108-2.642,1.613-3.196
						l-1.589-0.961c-0.437,0.48-1.312,1.644-1.755,3.707c-0.782,3.381,0.801,6.238,3.837,6.964c2.389,0.542,4.532-0.604,6.558-3.559
						c1.589-2.358,2.956-3.079,4.846-2.703c2.174,0.492,3.165,2.34,2.611,4.834C346.786,227.642,345.979,229.09,344.969,230.05"/>
				</g>
			</g>
		</g>
		<g>
			<g>
				<g>
					<path fill="#016B4F" d="M68.36,103.788l-1.687-0.018l-1.336,0.173l-1.97,0.517l-1.73,0.646l-1.361,0.72l-0.942,0.868v-0.997
						l0.185-1.41l0.265-1.669l0.375-1.638l0.406-1.429l0.351-1.09L68.36,103.788z M59.517,94.897l1.693-2.42l-1.404-1.065
						L49.27,106.541l1.546,0.936l7.501-10.887l1.201,0.899c-1.441,3.818-2.235,7.728-2.235,11.601l2.346-0.086l0.068-0.215
						l0.16-0.253l1.188-1.158l1.749-1.016l2.001-0.493l2.038-0.185l1.811,0.098l1.324,0.154l2.334,0.566l1.108-1.539L59.517,94.897z
						"/>
				</g>
				<g>
					<path fill="#016B4F" d="M56.861,109.536v-0.449c0-3.725,0.721-7.58,2.143-11.447l-0.585-0.437l-7.476,10.843l-2.285-1.379
						l0.265-0.375l10.789-15.486l2.075,1.583l-1.681,2.414l13.899,10.068l-1.527,2.112l-2.605-0.628l-1.281-0.148l-1.786-0.092
						l-1.971,0.185l-1.878,0.462l-1.693,0.985l-1.176,1.213l-0.136,0.462L56.861,109.536z M58.216,95.983l1.81,1.355l-0.111,0.301
						c-1.41,3.719-2.143,7.42-2.205,11.004l1.626-0.086l0.16-0.252l1.256-1.232l1.94-1.127l2.001-0.492l2.094-0.197l1.884,0.099
						l1.349,0.16l2.1,0.505l0.696-0.961L58.93,94.992l1.693-2.42l-0.721-0.554l-10.025,14.396l0.813,0.492L58.216,95.983z
						 M58.906,107.665v-1.97l0.456-3.14l0.375-1.669l0.955-3.11l9.022,6.453l-3.042-0.031l-1.281,0.166l-1.915,0.511l-1.687,0.628
						l-1.262,0.677L58.906,107.665z M61.141,99.148l-0.579,1.946l-0.357,1.619l-0.45,3.011l0.32-0.277l1.367-0.72l1.78-0.665
						l2.007-0.536l1.786-0.173L61.141,99.148z"/>
				</g>
				<g>
					<polyline fill="#016B4F" points="60.756,90.573 60.177,90.832 58.496,93.264 59.925,94.292 61.2,92.433 63.207,90.136 
						65.024,91.602 76.669,100.752 77.937,99.41 64.426,88.474 66.058,86.528 65.018,85.265 60.756,90.573 65.018,85.265 
						61.569,89.089 60.036,91.06 					"/>
				</g>
				<g>
					<path fill="#016B4F" d="M76.703,101.33L63.266,90.721l-1.749,1.995l-1.484,2.18l-2.131-1.533l2.057-2.907l1.275-1.625
						l3.781-4.243l1.601,1.94l-1.589,1.884l13.536,10.954L76.703,101.33z M63.162,89.545l2.131,1.724l11.331,8.91l0.69-0.733
						L63.814,88.535l1.693-2.008l-0.48-0.591l-3.935,4.902l-0.215-0.166l-0.049,0.062l0.111,0.228l-0.437,0.191l-0.129,0.166
						l-0.006-0.006l-1.281,1.847l0.733,0.536l1.029-1.502L63.162,89.545z"/>
				</g>
				<g>
					<path fill="#016B4F" d="M73.111,84.326l-0.758,0.579l-0.905,0.394h-0.899l-0.77-0.394c-0.677-0.579-0.585-1.41,0.333-2.432
						l1.663-0.979l1.589,0.462C74.047,82.596,73.924,83.377,73.111,84.326 M76.129,83.23c-0.271-1.225-0.591-2.032-1.336-2.74
						l-1.429-0.801l-1.62-0.031L70.1,80.262l-1.533,1.232c-0.801,0.881-1.226,1.78-1.306,2.642c-0.055,0.85,0.604,1.909,1.324,2.561
						l1.73,0.825l2.322-0.296l1.841-0.905l1.109-1.213L76.129,83.23z M84.03,88.143l-10.992,0.862l2.66,2.087l11.109-1.515
						L84.03,88.143z"/>
				</g>
				<g>
					<path fill="#016B4F" d="M75.582,91.541l-0.148-0.111l-3.522-2.771l12.205-0.948l4.089,2.112L75.582,91.541z M74.159,89.349
						l1.663,1.299l9.588-1.306l-1.466-0.763L74.159,89.349z M70.255,87.964l-1.946-0.948c-0.782-0.702-1.54-1.872-1.465-2.913
						c0.08-0.979,0.56-1.952,1.404-2.894l1.706-1.348l1.798-0.628l1.823,0.086l1.515,0.862c0.844,0.807,1.182,1.736,1.459,2.962
						l0.025,0.098l-0.671,2.155l-1.232,1.312L72.7,87.643L70.255,87.964z M68.826,86.338l1.564,0.745l2.131-0.277l1.693-0.831
						l0.992-1.084l0.486-1.675c-0.277-1.182-0.585-1.816-1.151-2.383l-1.287-0.714l-1.441-0.031l-1.503,0.548l-1.472,1.188
						c-0.671,0.758-1.084,1.564-1.145,2.346C67.644,84.86,68.217,85.772,68.826,86.338 M71.542,85.729l-1.189-0.049l-0.77-0.4
						c-0.437-0.357-0.64-0.745-0.671-1.164c-0.037-0.585,0.265-1.232,0.887-1.927l0.099-0.08l1.817-1.077l1.934,0.616
						c0.591,0.542,1.035,1.509-0.222,2.956l-0.813,0.64L71.542,85.729z M70.643,84.873h0.72l0.819-0.363l0.659-0.524
						c0.831-0.973,0.53-1.416,0.296-1.65l-1.306-0.382l-1.441,0.85c-0.431,0.493-0.647,0.924-0.628,1.256
						c0.012,0.191,0.111,0.363,0.289,0.517L70.643,84.873z"/>
				</g>
				<g>
					<path fill="#016B4F" d="M90.278,84.133l-0.634-1.625l-0.179,0.173l-0.203,0.166l-1.263,0.733l-1.305,0.166l-1.232-0.369
						l-1.01-0.782l-0.677-0.899l-0.283-1.158l0.253-1.176l0.899-1.158l1.145-0.634l1.201-0.16l1.299,0.425l1.109,0.899l1.102-1.312
						l-0.579-0.468l-0.597-0.782l-0.228-0.646l0.043-0.751l0.357-0.536l1.256-0.499l1.213-0.129l0.751,0.339l3.572,3.473
						l2.365,2.266l1.404-1.207L88.202,64.94l2.445-2.106l-1.072-1.385c-5.666,5.086-11.811,9.698-16.565,14.809l1.281,1.164
						c3.356-3.873,8.092-7.241,12.359-11.158l5.567,6.545l-1.022-0.739h-1.01l-0.961,0.271l-0.868,0.573l-0.887,1.324l0.086,1.657
						c-1.564-0.289-2.993,0.062-4.218,1.127l-1.441,1.81l-0.431,1.835l0.462,1.817l1.09,1.551l1.527,1.071l1.749,0.425l1.94-0.209
						l1.927-1.115L90.278,84.133z"/>
				</g>
				<g>
					<path fill="#016B4F" d="M86.267,85.96l-1.97-0.505l-1.626-1.17l-1.158-1.699l-0.48-1.909l0.53-2.112l1.447-1.81
						c1.213-1.071,2.574-1.502,4.095-1.354l-0.068-1.287l1.09-1.558l0.979-0.622l1.084-0.289h0.48l-4.058-4.766
						c-1.459,1.318-2.968,2.586-4.434,3.818c-2.802,2.346-5.45,4.569-7.568,7.001l-0.283,0.333l-1.915-1.749l0.289-0.314
						c3.141-3.374,6.786-6.459,10.654-9.723c1.964-1.656,3.991-3.368,5.93-5.111l0.345-0.308l1.595,2.069l-2.42,2.087l11.861,13.541
						l-2.026,1.742l-6.17-5.954l-0.573-0.259l-1.041,0.104l-1.078,0.425l-0.222,0.333l-0.031,0.548l0.179,0.505l0.554,0.727
						l0.85,0.671l-1.65,1.964l-1.373-1.121l-1.133-0.363l-1.035,0.136l-0.998,0.554l-0.776,1.01l-0.209,0.985l0.24,0.973
						l0.579,0.788l0.899,0.702l1.078,0.314l1.139-0.142l1.324-0.813l0.622-0.585l0.985,2.537l-0.4,0.265l-2.125,1.182L86.267,85.96z
						 M84.721,84.71l1.595,0.388l1.78-0.191l1.657-0.955l-0.283-0.732l-1.416,0.782l-1.398,0.173l-1.459-0.462l-1.096-0.868
						l-0.739-1.053l-0.308-1.25l0.357-1.441l1.022-1.268l1.299-0.69l1.3-0.166l1.527,0.524l0.788,0.64l0.548-0.659l-0.24-0.197
						l-0.739-0.973l-0.246-0.727l0.049-0.948l0.493-0.751l1.496-0.566l1.33-0.148l0.973,0.468l5.659,5.474l0.782-0.677
						l-11.848-13.54l2.451-2.125l-0.542-0.696c-1.841,1.65-3.756,3.263-5.604,4.821c-3.726,3.146-7.254,6.127-10.284,9.335
						l0.64,0.585c2.106-2.364,4.662-4.513,7.359-6.78c1.577-1.311,3.196-2.666,4.742-4.089l0.32-0.301l5.863,6.884l-0.579,0.622
						L91.064,72.5h-0.819l-0.837,0.234l-0.739,0.486l-0.764,1.133l0.105,2.057l-0.53-0.092c-1.466-0.277-2.765,0.068-3.861,1.028
						l-1.336,1.675l-0.369,1.644l0.406,1.638l1.004,1.429L84.721,84.71z"/>
				</g>
				<g>
					<polygon fill="#016B4F" points="88.871,64.482 90.564,63.029 93.181,61.237 94.567,63.22 103.49,74.974 105.03,73.983 
						94.739,59.993 97.837,57.985 96.802,56.557 93.711,58.626 93.723,58.626 90.059,61.237 93.101,61.292 92.085,61.113 
						91.297,61.077 90.62,61.027 89.998,61.175 87.756,63.109 					"/>
				</g>
				<g>
					<path fill="#016B4F" d="M103.38,75.548l-9.151-12.069l-1.152-1.656l-2.272,1.552l-1.989,1.718l-1.65-2.038l1.638-1.416h-0.037
						l0.252-0.185l0.881-0.696l0.142-0.031l2.346-1.675H92.32l4.594-3.079l1.527,2.131l-3.091,2.001l10.296,13.99L103.38,75.548z
						 M93.773,61.342l1.139,1.632l8.677,11.428l0.825-0.536L94.13,59.877l3.091-2.001l-0.523-0.739l-2.734,1.835l-2.371,1.693
						l0.505,0.024l0.899,0.154l0.203-0.136l0.197,0.166l1.035,0.018L93.773,61.342z M88.348,63.165l0.579,0.708l1.361-1.17
						l1.472-1.004l-1.681-0.037L88.348,63.165z"/>
				</g>
				<g>
					<polygon fill="#016B4F" points="113.485,64.734 113.319,65.603 113.097,66.212 112.746,66.668 112.174,67.08 111.17,67.431 
						110,67.407 108.737,67.019 107.518,66.415 106.428,65.603 105.646,64.66 104.199,61.631 103.909,58.374 104.833,54.999 
						107.038,51.76 106.182,50.338 94.352,58.17 95.386,59.599 103.115,54.476 102.031,57.21 101.853,60.067 102.431,62.807 
						103.565,65.085 105.548,67.321 108.011,68.811 110.702,69.291 113.405,68.343 114.871,66.809 115.24,64.734 					"/>
				</g>
				<g>
					<path fill="#016B4F" d="M110.737,69.733l-2.944-0.554l-2.568-1.576l-2.051-2.328l-1.164-2.383l-0.585-2.795l0.203-3.042
						l0.585-1.471l-6.94,4.599l-1.54-2.124l12.594-8.319l1.213,2.032l-2.322,3.411l-0.874,3.226l0.277,3.11l1.379,2.912l0.758,0.893
						l1.016,0.751l1.152,0.56l1.145,0.345l1.035,0.019l0.868-0.302l0.468-0.333l0.271-0.363l0.203-0.542l0.222-1.152h2.605
						l-0.48,2.697l-0.08,0.098l-1.638,1.644L110.737,69.733z M108.169,68.409l2.494,0.443l2.512-0.874l1.293-1.367l0.259-1.447
						h-0.887l-0.105,0.524l-0.302,0.788l-0.443,0.542l-0.671,0.468l-1.158,0.369l-1.287-0.043l-1.262-0.382l-1.287-0.628
						l-1.151-0.856l-0.918-1.102l-1.478-3.177l-0.302-3.331l0.998-3.578l2.057-3.011l-0.48-0.807l-11.097,7.334l0.53,0.745
						l8.529-5.646l-1.564,3.935l-0.16,2.734l0.548,2.629l1.084,2.173l1.903,2.149L108.169,68.409z"/>
				</g>
				<g>
					<path fill="#016B4F" d="M121.947,44.229l-0.727-1.589c-5.579,2.987-11.62,5.24-16.83,8.892l0.942,1.49l2.679-1.78l5.08,8.503
						l2.383,0.173l1.534-5.573l3.418-3.836l0.677,3.171l1.269,3.054l1.601,2.623l1.915,2.272l1.416-1.022l-1.792-2.383l-1.54-2.617
						l-1.269-3.522l-0.209-3.608l-2.069-0.203c-1.774,1.022-3.215,2.321-4.286,3.762l-2.272,5.074l-3.966-6.878L121.947,44.229z"/>
				</g>
				<g>
					<path fill="#016B4F" d="M125.814,62.21l-2.168-2.574l-1.632-2.679l-1.299-3.116l-0.53-2.426l-2.79,3.14l-1.601,5.813
						l-2.956-0.215l-4.957-8.313l-2.685,1.773l-1.379-2.198l0.333-0.234c3.436-2.414,7.279-4.243,10.986-6.004
						c1.946-0.93,3.96-1.884,5.881-2.912l0.394-0.216l1.096,2.377l-0.376,0.179l-11.639,5.807l3.331,5.757l1.921-4.31
						c1.213-1.632,2.703-2.931,4.465-3.947l0.117-0.074l2.574,0.253l0.222,3.916l1.256,3.454l1.496,2.549l2.032,2.691L125.814,62.21
						z M120.666,49.593l0.856,3.997l1.25,2.986l1.57,2.562l1.613,1.915l0.745-0.536l-1.533-2.032l-1.552-2.66l-1.336-3.713
						l-0.191-3.239l-1.564-0.16c-1.613,0.954-2.974,2.155-4.046,3.578l-2.562,5.757l-4.619-7.999l0.413-0.197l11.676-5.819
						l-0.369-0.801c-1.811,0.954-3.695,1.847-5.511,2.715c-3.559,1.693-7.242,3.448-10.537,5.702l0.493,0.776l2.697-1.786
						l5.191,8.694l1.804,0.135l1.533-5.406L120.666,49.593z"/>
				</g>
				<g>
					<polygon fill="#016B4F" points="126.132,49.713 127.555,49.879 128.805,49.497 129.661,48.888 130.394,48.124 131.01,47.213 
						131.287,46.092 133.405,47.01 135.53,46.764 136.539,46.283 137.494,45.372 136.053,44.313 134.988,45.107 134.101,45.236 
						133.208,45.119 132.463,44.719 131.995,44.085 131.656,41.462 132.919,40.138 134.076,40.033 135.351,40.347 136.638,40.969 
						137.79,41.8 138.633,42.57 139.071,43.216 142.95,54.51 144.742,53.851 139.348,37.521 142.507,36.437 141.977,34.787 
						138.794,35.846 138.719,35.895 136.638,36.591 137.925,39.922 136.552,39.153 135.333,38.561 133.978,38.278 132.463,38.438 
						130.184,40.082 129.599,42.884 128.164,41.523 126.305,40.969 124.285,41.332 122.148,42.182 121.397,42.57 120.639,43.026 
						121.44,44.719 122.844,43.795 124.741,43.155 126.52,43.087 128.017,43.685 128.983,45.027 129.144,45.741 129.051,46.511 
						128.712,47.274 128.14,47.878 127.228,48.087 126.477,48.02 					"/>
				</g>
				<g>
					<path fill="#016B4F" d="M142.697,55.067l-4.015-11.656l-0.4-0.603l-0.776-0.69l-1.115-0.807l-1.219-0.579l-1.127-0.265
						l-0.93,0.08l-1.01,1.059l0.302,2.315l0.339,0.468l0.597,0.314l0.751,0.104l0.727-0.111l1.232-0.911l2.094,1.545l-1.423,1.336
						l-1.145,0.518l-2.248,0.259l-0.098-0.043l-1.65-0.72l-0.222,0.764l-0.61,0.917l-0.776,0.825l-1.047,0.72l-1.33,0.407
						l-1.977-0.234l0.511-2.524l1.065,0.104l0.721-0.166l0.431-0.462l0.283-0.634l0.08-0.628l-0.123-0.56l-0.85-1.17l-1.287-0.523
						l-1.632,0.062l-1.786,0.603l-1.768,1.17l-1.17-2.494l1.084-0.653l0.77-0.4l2.18-0.868l2.198-0.407l2.131,0.69l0.881,0.825
						l0.462-2.211l0.135-0.104l2.371-1.706l1.694-0.179l0.068,0.018l1.355,0.289l1.669,0.819l-1.01-2.641l6.171-2.081l0.782,2.457
						l-3.153,1.077l5.395,16.324L142.697,55.067z M134.113,39.599l1.349,0.333l1.367,0.653l1.207,0.874l0.887,0.795l0.548,0.825
						l3.75,10.881l0.985-0.369l-5.401-16.336l3.165-1.09l-0.271-0.831l-4.502,1.521l1.546,4.021l-2.402-1.348l-1.195-0.573
						l-1.189-0.246l-1.336,0.148l-2.051,1.472l-0.708,3.393l-1.921-1.816l-1.657-0.493l-1.921,0.345l-2.057,0.825l-1.115,0.616
						l0.425,0.899l1.09-0.702l2.026-0.665l1.866-0.068l0.086,0.031l1.607,0.647l1.102,1.595l0.185,0.788l-0.142,0.967l-0.413,0.881
						l-0.665,0.696l-1.102,0.259l-0.444-0.043l-0.172,0.868l0.881,0.105l1.09-0.339l0.807-0.573l0.665-0.708l0.53-0.795l0.382-1.533
						l2.469,1.065l1.946-0.215l0.88-0.425l0.536-0.517l-0.776-0.566l-0.893,0.671l-1.059,0.154l-0.062-0.012l-1.035-0.16
						l-0.887-0.523l-0.548-0.837l-0.357-2.82l1.503-1.589L134.113,39.599z"/>
				</g>
			</g>
			<g>
				<g>
					<path fill="#016B4F" d="M161.281,35.957l-1.681,2.045l-0.954-1.423l-0.998-0.825l-1.238-0.265l-1.632,0.166l0.837-1.071
						l1.121-0.844l1.145-0.542l1.053-0.283l0.677-0.129l0.924-0.043l1.219,0.173l1.54,0.492L161.281,35.957z M166.515,29.208
						l0.566,4.748c-2.297-2.568-5.327-3.461-8.923-2.716l-2.217,0.795l-1.915,1.429l-1.41,1.749l-0.548,1.755l1.706,0.881
						c1.133-0.437,1.749-0.646,1.81-0.69h0.856l0.727,0.339l0.517,0.598l0.289,0.714c0.142,0.745-0.154,1.613-0.105,1.718
						l1.607,0.838l2.808-3.738l2.463-3.196l0.351,0.265l0.536,0.517l0.628,0.634l0.64,0.684l0.468,0.579l0.179,0.327l1.521,10.609
						l1.835-0.222l-2.174-17.05l3.547-0.234l-0.16-1.736l-3.615,0.253l0.154-0.098L166.515,29.208z"/>
				</g>
				<g>
					<path fill="#016B4F" d="M168.703,48.519l-0.055-0.419l-1.509-10.523l-0.142-0.259l-1.047-1.182l-1.121-1.114l-5.228,6.884
						l-2.045-1.065l-0.061-0.117c-0.086-0.16-0.062-0.32-0.012-0.61c0.062-0.32,0.148-0.819,0.074-1.232l-0.228-0.56l-0.425-0.48
						l-0.554-0.259h-0.677c-0.092,0.037-0.234,0.092-0.511,0.191c-0.296,0.117-0.708,0.265-1.238,0.474l-0.185,0.068l-2.186-1.133
						l0.733-2.247l1.478-1.81l2.032-1.496l2.217-0.795c0.893-0.185,1.718-0.271,2.5-0.271c2.297,0,4.311,0.751,5.998,2.229
						l-0.474-3.959l2.568-0.302l0.025,0.08l3.873-0.271l0.234,2.592l-3.522,0.234l2.174,17.032L168.703,48.519z M164.676,33.834
						l0.684,0.518l1.213,1.194l1.121,1.293l0.277,0.536l1.466,10.191l0.991-0.111l-2.174-17.081l3.559-0.234l-0.08-0.881
						l-4.748,0.327l0.671,5.665l-0.899-1.01c-2.168-2.42-5.05-3.301-8.517-2.586l-2.094,0.757l-1.829,1.367l-1.324,1.638
						l-0.413,1.33l1.219,0.634c0.45-0.166,0.801-0.302,1.065-0.4c0.277-0.105,0.45-0.166,0.511-0.197l0.111-0.074l0.092,0.018
						l1.041,0.043l0.874,0.449l0.591,0.72l0.283,0.708c0.129,0.646,0.018,1.256-0.043,1.619v0.012l1.029,0.536L164.676,33.834z
						 M159.564,38.717l-1.238-1.847l-0.874-0.72l-1.065-0.228l-2.568,0.265l1.54-1.946l1.127-0.844l1.207-0.579l1.127-0.314
						l0.708-0.142l0.998-0.043l1.287,0.173l2.192,0.696L159.564,38.717z M156.436,35.053l0.068,0.019l1.41,0.351l1.084,0.917
						l0.64,0.942l1.318-1.595l1.62-2.063l-0.954-0.301l-1.145-0.16l-0.85,0.049l-0.616,0.123l-1.022,0.277l-1.065,0.517
						l-1.004,0.764l-0.185,0.234L156.436,35.053z"/>
				</g>
				<g>
					<path fill="#016B4F" d="M177.977,47.368l-1.312-17.112l3.054-0.191l-0.092-1.749l-3.344,0.209l-1.447-1.158l-0.154-0.69
						l0.037-1.545l1.441-1.459l2.026-1.047l2.241-0.48c1.989-0.136,4.021,0.111,6.023,0.782c2.051,0.554,4.083,1.903,4.348,2.241
						l1.503-1.182l-1.657-1.034l-2.839-1.472c-2.426-0.874-4.957-1.232-7.519-1.084l-3.073,0.69l-2.611,1.435l-1.558,2.118
						l-0.061,2.198l0.856,1.878l-3.054,0.191l0.173,1.724l3.602-0.209l1.564,17.069L177.977,47.368z"/>
				</g>
				<g>
					<path fill="#016B4F" d="M175.734,47.94l-0.037-0.413l-1.521-16.656l-3.603,0.215l-0.259-2.574l2.876-0.185l-0.634-1.404
						l0.061-2.432l1.78-2.346l2.728-1.471l3.067-0.69c0.456-0.037,0.838-0.043,1.225-0.043c2.223,0,4.428,0.382,6.528,1.139
						l2.888,1.496l2.211,1.367l-2.309,1.816l-0.265-0.327c-0.228-0.271-2.162-1.558-4.132-2.093
						c-1.934-0.653-3.91-0.905-5.869-0.764l-2.137,0.456l-1.915,0.991l-1.281,1.287l-0.037,1.324l0.123,0.493l1.201,0.961
						l3.596-0.222l0.154,2.598l-3.048,0.185l1.305,17.118L175.734,47.94z M174.952,29.972l0.037,0.413l1.521,16.65l1.01-0.062
						l-1.312-17.118l3.061-0.185l-0.055-0.899l-3.067,0.197l-1.687-1.361l-0.209-0.942l0.049-1.712l1.669-1.657l2.131-1.084
						l2.248-0.48c0.419-0.037,0.782-0.049,1.152-0.049c1.718,0,3.43,0.283,5.093,0.843c1.712,0.462,3.486,1.497,4.231,2.087
						l0.739-0.585l-1.145-0.714l-2.802-1.453c-2.297-0.825-4.779-1.207-7.304-1.035l-2.944,0.665l-2.476,1.361l-1.423,1.927
						l-0.049,1.976l1.059,2.34l-3.227,0.209l0.092,0.875L174.952,29.972z"/>
				</g>
				<g>
					<path fill="#016B4F" d="M194.672,29.845l2.987,0.166l0.092-1.73c-6.195-0.696-12.366-0.604-18.573,0.037l0.135,1.693
						c4.391-0.105,8.812-0.911,13.228-0.32l-0.025,1.441c-4.04,0.492-7.722,2.672-10.918,5l1.386,1.78l0.24-0.092l0.283-0.025
						l1.503,0.302l1.847,0.985l1.718,1.01l1.54,1.589l1.035,1.558l0.45,1.022l0.542,2.241l1.884,0.136L194.672,29.845z"/>
				</g>
				<g>
					<path fill="#016B4F" d="M194.672,29.845l2.987,0.166l0.092-1.73c-6.195-0.696-12.366-0.604-18.573,0.037l0.135,1.693
						c4.391-0.105,8.812-0.911,13.228-0.32l-0.025,1.441c-4.04,0.492-7.722,2.672-10.918,5l1.386,1.78l0.24-0.092l0.283-0.025
						l1.503,0.302l1.847,0.985l1.718,1.01l1.54,1.589l1.035,1.558l0.45,1.022l0.542,2.241l1.884,0.136L194.672,29.845z"/>
				</g>
				<g>
					<path fill="#016B4F" d="M194.429,47.091l-2.63-0.185l-0.616-2.543l-0.431-0.954l-0.985-1.497l-1.459-1.484l-1.663-0.979
						l-1.78-0.948l-1.379-0.271l-0.351,0.074l-0.296,0.117l-1.841-2.377l0.345-0.259c2.562-1.866,6.435-4.39,10.752-5.024
						l0.012-0.696c-2.463-0.296-5.536-0.105-8.369,0.11c-1.441,0.117-2.944,0.228-4.415,0.265l-0.406,0.012l-0.191-2.512
						l0.419-0.049c6.626-0.671,12.821-0.69,18.653-0.031l0.4,0.043l-0.135,2.562l-2.98-0.166L194.429,47.091z M192.483,46.099
						l1.133,0.08l0.646-16.785l2.993,0.166l0.049-0.899c-5.542-0.591-11.393-0.585-17.668,0.043l0.074,0.868
						c1.318-0.037,2.654-0.148,3.96-0.247c3.03-0.24,6.3-0.419,8.936-0.055l0.369,0.043l-0.037,2.198l-0.363,0.043
						c-4.083,0.499-7.815,2.833-10.364,4.661l0.918,1.182l0.406-0.037l1.669,0.357l1.854,0.985l1.817,1.096l1.552,1.582l1.072,1.619
						l0.493,1.084L192.483,46.099z"/>
				</g>
				<g>
					<polygon fill="#FFFFFF" points="192.303,41.788 191.619,41.055 190.036,39.873 188.657,38.672 187.025,37.336 185.83,36.486 
						184.617,36.228 185.436,35.606 186.748,34.873 188.324,34.072 189.907,33.463 191.366,33.032 192.518,32.804 					"/>
				</g>
				<g>
					<polygon fill="#016B4F" points="183.955,42.148 183.389,43.602 184.004,44.987 185.575,45.461 187.096,44.809 187.705,43.398 
						187.096,41.933 185.519,41.508 					"/>
				</g>
				<g>
					<path fill="#016B4F" d="M185.603,45.913l-1.915-0.579l-0.77-1.718l0.702-1.792l1.866-0.764l1.921,0.511l0.764,1.835
						l-0.751,1.724L185.603,45.913z M184.316,44.638l1.225,0.376l1.226-0.53l0.48-1.09l-0.468-1.102l-1.238-0.333l-1.262,0.511
						l-0.431,1.121L184.316,44.638z"/>
				</g>
				<g>
					<path fill="#016B4F" d="M214.613,31.733l-0.948,5.763c-1.041-1.78-2.057-2.851-3.104-2.999l-2.987,1.318l-0.505-2.192
						l-0.887-1.219l-1.373-1.127l-1.983-0.856C206.743,30.834,210.777,30.631,214.613,31.733 M211.799,48.691l1.866,0.363
						l3.005-16.902l1.934,0.197l0.351-1.699c-6.361-1.595-13.961-1.847-21.578-2.364l-0.092,1.693l2.297,0.203l0.406,0.203
						l3.362,1.244l1.398,1.804l0.893,1.619l0.179,1.564l-0.049,1.01l-0.32,0.936l-0.684,1.108l-0.764,0.739l-1.429,0.955
						l-1.447,0.843l-1.392,0.117l-1.786-0.96l-0.117,1.989l2.223,0.745l2.303-0.696l1.681-1.01l1.638-1.699l1.115-1.983l0.881-1.274
						l1.41-0.856l1.151-0.351l0.948,0.579l0.893,1.195l0.745,1.379l0.351,1.084L211.799,48.691z"/>
				</g>
				<g>
					<path fill="#016B4F" d="M214.01,49.553l-2.703-0.518l1.429-8.54l-0.314-0.979l-0.727-1.312l-0.8-1.077l-0.721-0.437
						l-0.961,0.302l-1.238,0.764l-0.831,1.194l-1.158,2.038l-1.73,1.768l-1.675,1.01l-2.531,0.776l-2.66-0.887l0.166-2.986
						l2.272,1.219l1.164-0.092l1.367-0.801l1.404-0.936l0.671-0.659l0.647-1.059l0.271-0.794l0.037-0.948l-0.16-1.41l-0.85-1.546
						l-1.287-1.656l-3.633-1.392l-2.636-0.228l0.16-2.543l0.425,0.03c1.182,0.086,2.377,0.16,3.553,0.228
						c6.534,0.412,12.692,0.794,18.099,2.155l0.388,0.105l-0.505,2.469l-1.921-0.191L214.01,49.553z M212.292,48.346l1.035,0.209
						l2.993-16.865l1.946,0.191l0.185-0.911c-5.234-1.262-11.214-1.638-17.538-2.032l-3.135-0.197l-0.049,0.843l2.045,0.222
						l0.406,0.203l3.43,1.256l0.08,0.098l1.398,1.81l0.973,1.829l0.185,1.564l-0.068,1.201l-0.332,0.936l-0.782,1.275l-0.77,0.739
						l-1.478,0.997l-1.657,0.923l-1.515,0.117l-1.306-0.702l-0.055,0.997l1.78,0.604l2.174-0.665l1.54-0.936l1.552-1.619
						l1.096-1.934l1.028-1.435l1.41-0.85l1.435-0.456l1.238,0.795l0.88,1.195l0.782,1.429l0.419,1.256l-0.025,0.104L212.292,48.346z
						 M213.894,38.728l-0.591-1.016c-0.973-1.662-1.878-2.586-2.679-2.765l-3.344,1.472l-0.603-2.617l-0.838-1.145l-1.244-1.016
						l-1.934-0.825l0.216-0.819c1.238,0.129,2.512,0.203,3.75,0.271c2.685,0.142,5.45,0.295,8.11,1.059l0.357,0.098L213.894,38.728z
						 M210.5,34.06l0.123,0.019c0.942,0.129,1.847,0.85,2.808,2.241l0.702-4.279c-2.457-0.653-5.044-0.788-7.556-0.93
						c-0.456-0.019-0.917-0.043-1.379-0.074l1.256,1.041l1.041,1.447l0.382,1.693L210.5,34.06z"/>
				</g>
				<g>
					<path fill="#016B4F" d="M224.79,37.591l-0.954-0.376l-0.745-0.579l-0.443-0.788l-0.025-0.825
						c0.209-0.899,0.998-1.219,2.359-0.93l1.65,0.93l0.357,1.613C226.755,37.541,226.034,37.849,224.79,37.591 M227.34,39.167
						l1.657-2.045l0.018-1.582l-0.714-1.429l-1.373-1.115l-1.86-0.696l-2.95,0.172l-1.521,1.964l0.043,1.625l0.671,1.429
						l1.287,1.139l1.755,0.702L227.34,39.167z M227.038,48.606l-6.46-8.793l-0.407,3.14l6.583,8.953L227.038,48.606z"/>
				</g>
				<g>
					<path fill="#016B4F" d="M227.085,53.076l-7.359-10.006l0.573-4.366l7.181,9.778L227.085,53.076z M220.613,42.843l5.813,7.9
						l0.173-2.013l-5.733-7.802L220.613,42.843z M224.29,39.77l-1.977-0.819l-1.392-1.275l-0.702-1.601l-0.049-1.773l1.73-2.241
						l3.233-0.197l0.08,0.037l1.995,0.764l1.478,1.256l0.758,1.625l-0.019,1.724l-0.092,0.123l-1.78,2.186L224.29,39.77z
						 M222.824,38.261l1.607,0.64l2.697-0.148l1.447-1.78l0.012-1.336l-0.622-1.25l-1.25-1.016l-1.718-0.64l-2.654,0.154
						l-1.318,1.693l0.043,1.379l0.591,1.275L222.824,38.261z M225.558,38.107c-0.253,0-0.542-0.037-0.856-0.104l-1.127-0.449
						l-0.85-0.708l-0.499-0.979l-0.037-0.887l0.012-0.055c0.271-1.133,1.287-1.607,2.87-1.25l0.129,0.043l1.804,1.029l0.431,1.896
						l-0.031,0.098C227.246,37.362,226.79,38.107,225.558,38.107 M224.056,36.845l0.893,0.351c0.185,0.031,0.413,0.056,0.61,0.056
						c0.542,0,0.85-0.191,0.998-0.628l-0.302-1.324l-1.423-0.807c-0.265-0.056-0.505-0.08-0.714-0.08
						c-0.764,0-0.979,0.339-1.071,0.659l0.025,0.653l0.357,0.628L224.056,36.845z"/>
				</g>
				<g>
					<polygon fill="#016B4F" points="239.439,56.243 241.175,56.859 247.623,40.862 250.918,42.063 251.614,40.462 248.27,39.236 
						248.374,39.193 246.361,38.436 241.471,50.905 239.051,47.174 236.514,44.594 238.306,44.649 240.085,44.23 241.643,43.387 
						242.598,42.112 242.715,40.727 242.247,39.193 241.366,37.771 240.203,36.582 238.367,38.134 237.08,38.922 236.144,39.169 
						235.307,39.033 234.709,38.67 234.365,38.263 234.217,37.87 234.192,37.629 234.395,37.18 234.925,36.632 233.619,35.345 
						232.135,37.087 232.135,38.134 232.634,39.156 233.539,39.994 234.734,40.647 236.372,40.924 237.745,40.745 238.995,40.117 
						240.283,39.169 240.707,41.195 240.055,42.063 238.934,42.641 237.548,42.888 236.009,42.931 234.519,42.796 233.225,42.531 
						233.459,44.421 234.894,45.338 236.44,46.829 237.899,48.584 239.149,50.425 240.067,52.155 240.436,53.608 					"/>
				</g>
				<g>
					<path fill="#016B4F" d="M241.421,57.395l-2.537-0.893l1.109-2.919l-0.339-1.324l-0.881-1.638l-1.225-1.798l-1.441-1.724
						l-1.509-1.459l-1.533-0.967l-0.339-2.673l1.878,0.382l1.441,0.123l1.497-0.043l1.262-0.228l0.967-0.505l0.48-0.64l-0.246-1.189
						l-0.757,0.56l-1.453,0.708l-1.435,0.185l-1.829-0.339l-1.195-0.646l-1.09-1.028l-0.53-1.207v-1.207l1.878-2.204l1.921,1.902
						l-0.77,0.794l-0.117,0.277l0.006,0.074l0.099,0.277l0.252,0.295l0.474,0.283l0.659,0.105l0.795-0.203l1.238-0.757l2.081-1.774
						l1.435,1.472l0.992,1.601l0.493,1.613l-0.142,1.583l-1.158,1.496l-1.663,0.881l-1.891,0.437l-0.739-0.024l1.792,1.823
						l2.026,3.097l4.736-12.081l3.442,1.287l-0.098,0.037l2.722,0.997l-1.022,2.389l-3.295-1.201L241.421,57.395z M239.993,55.985
						l0.936,0.333l6.454-15.997l3.301,1.2l0.357-0.807l-3.966-1.459l0.123-0.049l-0.591-0.222l-5.037,12.845l-2.876-4.421
						l-3.227-3.27l2.796,0.086l1.675-0.4l1.429-0.77l0.813-1.096l0.105-1.182l-0.425-1.398l-0.856-1.386l-0.831-0.831l-1.527,1.293
						l-1.453,0.887l-1.028,0.259l-1.078-0.197l-0.696-0.456l-0.425-0.536l-0.173-0.505l-0.037-0.351l0.332-0.671l0.24-0.246
						l-0.677-0.665l-1.078,1.269v0.794l0.406,0.862l0.85,0.788l1.047,0.548l1.509,0.253l1.226-0.154l1.195-0.597l1.768-1.305
						l0.591,2.863l-0.917,1.152l-1.232,0.616l-1.385,0.247l-1.607,0.049l-1.54-0.129l-0.757-0.16l0.135,1.102l1.262,0.807
						l1.613,1.545l1.49,1.792l1.275,1.872l0.942,1.773l0.443,1.675L239.993,55.985z"/>
				</g>
				<g>
					<path fill="#016B4F" d="M259.753,46.261l0.782-1.551c-3.467-1.829-6.928-3.762-10.703-4.858l-0.69,1.589l6.066,2.463
						l-2.217,1.158l-1.453,1.97l-0.271,0.85l-0.357,1.256l-0.382,1.503l-0.363,1.429l-0.308,1.176l-0.222,0.739l-0.979,1.669
						l-1.127,0.917l-1.632,0.382l-2.482-0.055l-0.142,1.693l3.085-0.086l2.082-0.277l1.441-0.924l1.078-1.675l2.359-7.556
						l1.478-1.724l2.827-1.207L259.753,46.261z"/>
				</g>
				<g>
					<path fill="#016B4F" d="M242.807,59.025l0.216-2.574l2.833,0.074l1.478-0.351l0.991-0.801l0.955-1.607l1.909-6.989l1.607-2.1
						l1.398-0.726l-5.616-2.284l1.004-2.334l0.363,0.111c3.461,0.997,6.682,2.709,9.798,4.366l1.361,0.72l-1.158,2.309l-2.346-1.225
						l-2.537,1.084l-1.367,1.583l-2.371,7.58l-1.207,1.804l-1.62,0.985l-2.082,0.277L242.807,59.025z M243.805,57.331l-0.068,0.819
						l2.611-0.074l1.946-0.259l1.287-0.825l0.998-1.545l2.414-7.654l1.638-1.841l3.005-1.281l1.94,1.01l0.394-0.794l-0.634-0.326
						c-2.962-1.576-6.029-3.202-9.262-4.193l-0.363,0.843l6.509,2.648l-2.938,1.533l-1.361,1.835l-0.597,2.02l-1.275,4.858
						l-1.121,1.878l-1.299,0.998l-1.736,0.4L243.805,57.331z"/>
				</g>
				<g>
					<polygon fill="#016B4F" points="257.384,45.029 259.379,46.094 261.11,47.332 262.145,48.12 254.04,62.806 255.691,63.68 
						263.961,48.483 267.262,50.17 268.13,48.643 264.793,46.926 264.793,46.888 260.79,44.832 262.157,46.316 261.849,46.094 
						261.449,45.947 261.135,45.374 260.79,44.832 258.142,43.489 					"/>
				</g>
				<g>
					<path fill="#016B4F" d="M255.855,64.261l-2.389-1.281l8.129-14.747l-0.733-0.567l-1.73-1.225l-2.315-1.232l1.133-2.297
						l10.777,5.554l-1.299,2.266l-3.282-1.681L255.855,64.261z M254.63,62.63l0.887,0.474l8.277-15.197l3.295,1.699l0.45-0.788
						l-5.154-2.691l-0.474,0.536l-0.265-0.191l-0.486-0.179l-0.665-1.133l-2.155-1.096l-0.388,0.782l1.638,0.868l3.11,2.29
						l-0.179,0.32L254.63,62.63z"/>
				</g>
				<g>
					<path fill="#016B4F" d="M263.374,64.638l-0.234-1.49l0.444-1.299l0.967-1.01l1.373-0.604l1.552-0.068l1.577,0.745l1.312,1.595
						l0.554,2.081l-0.037,2.18l-0.425,1.841l-2.168,3.35l1.546,1.084l10.814-14.347l1.693,1.176l1.047-1.392
						c-4.822-3.405-10.524-7.709-17.009-10.714l-0.862,1.533c4.754,2.253,9.219,4.957,13.406,8.196l-6.331,7.999l-0.511-3.571
						l-2.371-2.703l-2.303-0.881l-2.34,0.252l-1.971,1.041l-1.404,1.539l-0.622,1.977l0.524,2.044L263.374,64.638z"/>
				</g>
				<g>
					<path fill="#016B4F" d="M269.93,73.628l-2.223-1.551l2.353-3.639l0.413-1.767l0.025-2.026l-0.517-1.933l-1.195-1.459
						l-1.392-0.647l-1.373,0.056l-1.213,0.536l-0.85,0.881l-0.376,1.108l0.271,1.755l-2.562,0.794l-0.659-2.598l0.745-2.247
						l1.515-1.638l2.137-1.09l2.433-0.259l2.574,1.034l2.445,2.796l0.394,2.721l5.444-6.884c-3.972-3.036-8.338-5.683-12.981-7.888
						l-0.413-0.197l1.275-2.272l0.363,0.166c5.684,2.636,10.715,6.226,15.167,9.403c0.647,0.462,1.281,0.911,1.897,1.348
						l0.363,0.253l-1.552,2.069l-1.693-1.17L269.93,73.628z M268.871,71.848l0.868,0.616l10.814-14.347l1.694,1.17l0.536-0.708
						c-0.511-0.363-1.028-0.726-1.552-1.108c-4.317-3.079-9.2-6.564-14.669-9.15l-0.444,0.795c4.674,2.247,9.065,4.951,13.068,8.042
						l0.339,0.265l-7.211,9.113l-0.64-4.427l-2.211-2.524l-2.106-0.813l-2.155,0.234l-1.841,0.967l-1.287,1.422l-0.56,1.768
						l0.382,1.49l0.998-0.314l-0.191-1.225l0.579-1.558l1.102-1.108l1.521-0.634l1.657-0.074l0.098,0.049l1.724,0.856l1.392,1.761
						l0.573,2.192l-0.037,2.18l-0.493,2.069L268.871,71.848z"/>
				</g>
			</g>
			<g>
				<g>
					<path fill="#016B4F" d="M290.928,82.291l0.296-1.478l0.092-1.564l-0.406-1.706l-0.548-1.681l-0.677-1.515l-0.702-1.016
						l0.998,0.129l1.367,0.388l1.607,0.542l1.583,0.585l1.404,0.622l1.016,0.456L290.928,82.291z M300.714,75.234l2.161,2.045
						l1.293-1.25l-13.665-12.506l-1.115,1.367l9.779,8.916l-1.029,1.035c-3.627-1.989-7.402-3.288-11.239-3.892l-0.259,2.352
						l0.197,0.068l0.253,0.203l0.985,1.324l0.757,1.89l0.517,2.125l0.086,2.069l-0.53,1.509l-0.431,1.071l-0.289,1.625l1.416,1.268
						L300.714,75.234z"/>
				</g>
				<g>
					<path fill="#016B4F" d="M289.619,87.046l-1.891-1.699l0.326-1.86l0.462-1.164l0.486-1.41l-0.068-1.989l-0.511-2.038
						l-0.727-1.78l-1.053-1.361l-0.468-0.16l0.351-3.134l0.444,0.074c3.8,0.604,7.525,1.878,11.091,3.781l0.487-0.487l-9.748-8.885
						l1.663-2.032l14.324,13.122l-1.915,1.841l-2.149-2.038L289.619,87.046z M288.652,85.026l0.93,0.838l11.128-11.226l2.155,2.051
						l0.684-0.652L290.542,64.14l-0.566,0.708l9.804,8.935l-1.564,1.583l-0.277-0.154c-3.43-1.872-7.008-3.14-10.666-3.774
						l-0.166,1.589l0.259,0.215l1.108,1.497l0.758,1.884l0.542,2.186l0.099,2.235l-1.004,2.679L288.652,85.026z M290.222,83.635
						l0.585-2.907l0.074-1.441l-0.382-1.65l-0.542-1.644l-0.665-1.472l-1.213-1.73l1.958,0.247l1.435,0.406l3.215,1.127l3.005,1.342
						L290.222,83.635z M289.871,73.868l0.16,0.24l0.721,1.577l0.56,1.724l0.431,1.804l-0.117,1.736l4.606-4.76l-1.866-0.825
						l-3.147-1.108L289.871,73.868z"/>
				</g>
				<g>
					<path fill="#016B4F" d="M281.787,86.319l0.172-0.788l0.444-0.265l0.554,0.012l0.493,0.215l0.443,0.357l0.591,0.733l0.345,1.016
						l-0.64,0.166l-0.646-0.037l-0.585-0.203l-0.554-0.302L281.787,86.319z M287.501,85.42l-0.739,1.373l-0.234,0.216l-0.794-1.564
						l-0.591-0.844l-1.127-0.757l-1.238-0.351l-1.164,0.111l-0.955,0.604l-0.566,0.936l-0.173,1.022l0.197,1.034l0.64,0.869
						l1.829,1.17l2.592,0.246c0.468,1.903,0.493,3.959,0.086,6.207l1.829,0.209l0.154-1.41l0.111-1.084l0.055-0.973l-0.068-0.93
						l-0.16-1.09l-0.228-1.373l0.597-0.419l0.246-0.197l0.647-0.93l0.825-1.644L287.501,85.42z"/>
				</g>
				<g>
					<path fill="#016B4F" d="M287.463,96.376l-2.697-0.314l0.08-0.449c0.382-2.1,0.382-3.971-0.012-5.732l-2.482-0.277l-1.934-1.28
						l-0.714-1.035l-0.222-1.114l0.246-1.25l0.702-1.078l1.139-0.665l1.25-0.117l1.429,0.425l1.244,0.868l0.591,0.844l0.511,1.01
						l0.69-1.281l2.611,0.634l-1.065,2.124l-0.764,1.077l-0.634,0.468l0.332,2.211l0.074,0.955l-0.16,2.131L287.463,96.376z
						 M285.763,95.317l0.948,0.111l0.271-3.017l-0.062-0.869l-0.419-2.697l0.985-0.714l0.61-0.875l0.56-1.114l-0.936-0.228
						l-0.671,1.189l-0.653,0.597l-1.047-2.063l-0.511-0.72l-1.004-0.683l-1.096-0.302l-0.985,0.086l-0.782,0.493l-0.474,0.782
						l-0.148,0.868l0.166,0.868l0.536,0.72l1.681,1.077l2.783,0.265l0.074,0.289C286.046,91.216,286.108,93.161,285.763,95.317"/>
				</g>
				<g>
					<polygon fill="#016B4F" points="309.873,84.812 311.172,83.636 303.173,75.059 301.91,76.327 306.566,80.859 304.066,81.1 
						301.91,82.424 301.338,83.113 300.537,84.135 299.626,85.323 298.745,86.512 297.988,87.51 297.483,88.058 295.937,89.295 
						294.514,89.696 292.839,89.474 290.567,88.427 289.809,89.905 292.648,91.1 294.73,91.543 296.442,91.266 298.08,90.133 
						303.185,83.987 305.279,83.014 308.315,82.953 					"/>
				</g>
				<g>
					<path fill="#016B4F" d="M294.717,91.974l-2.149-0.462l-3.344-1.392l1.151-2.253l2.587,1.188l1.527,0.209l1.25-0.357
						l1.478-1.176l0.462-0.505l4.009-5.16l2.328-1.392l1.601-0.148l-4.311-4.193l1.878-1.89l8.597,9.218l-1.958,1.767l-1.706-2.038
						l-2.734,0.049l-1.934,0.899l-5.124,6.145l-1.817,1.201L294.717,91.974z M290.4,89.689l2.42,1.016l1.921,0.4l1.54-0.247
						l1.503-1.04l5.222-6.213l2.266-1.016l3.239-0.068l1.398,1.675l0.653-0.585l-7.396-7.937l-0.647,0.646l5.007,4.877l-3.331,0.32
						l-2.001,1.232l-1.318,1.65l-2.543,3.368l-0.536,0.579l-1.743,1.354l-1.503,0.425l-1.891-0.271l-1.897-0.868L290.4,89.689z"/>
				</g>
				<g>
					<polygon fill="#016B4F" points="304.924,101.355 304.037,101.257 303.402,101.103 302.934,100.789 302.429,100.272 
						301.974,99.299 301.912,98.147 302.159,96.891 302.682,95.629 303.402,94.428 304.24,93.572 307.14,91.879 310.392,91.263 
						313.853,91.817 317.283,93.652 318.644,92.661 309.61,81.787 308.317,82.957 314.204,90.1 311.353,89.305 308.464,89.391 
						305.773,90.21 303.581,91.552 301.598,93.751 300.286,96.318 300.089,99.059 301.259,101.608 302.978,102.919 305.12,103.079 
											"/>
				</g>
				<g>
					<path fill="#016B4F" d="M305.607,103.544l-2.796-0.209l-1.934-1.545l-1.219-2.654l0.259-3.011l1.367-2.666l2.082-2.266
						l2.279-1.392l2.808-0.837l2.956-0.086l1.607,0.443l-5.29-6.41l1.934-1.737l0.277,0.345l9.33,11.219l-1.946,1.423l-3.596-1.933
						l-3.325-0.53l-3.11,0.585l-2.783,1.625l-0.801,0.819l-0.665,1.12l-0.493,1.207l-0.203,1.121l0.055,1.022l0.382,0.831
						l0.456,0.462l0.332,0.215l0.567,0.136l1.176,0.129L305.607,103.544z M303.138,102.503l1.503,0.117l-0.098-0.881l-0.548-0.056
						l-0.831-0.228l-0.468-0.314l-0.659-0.69l-0.487-1.133l-0.074-1.207l0.265-1.306l0.542-1.342l0.745-1.256l0.998-1.003
						l3.036-1.749l3.325-0.628l3.67,0.61l3.19,1.706l0.782-0.56l-8.467-10.185l-0.653,0.597l6.485,7.875l-4.089-1.139l-2.771,0.08
						l-2.58,0.788l-2.094,1.281l-1.903,2.112l-1.25,2.438l-0.185,2.549l1.09,2.352L303.138,102.503z"/>
				</g>
				<g>
					<path fill="#016B4F" d="M324.631,104.674l1.595,2.525l1.515-0.887c-3.412-5.123-6.201-10.665-10.426-15.203l-1.404,1.01
						c2.999,3.319,5.302,7.026,7.587,10.769l-1.225,0.801c-3.024-2.777-6.06-5.123-10.118-6.256l-0.684,2.118l0.203,0.117
						l0.197,0.222l0.622,1.583l0.049,1.866l0.08,1.97l-0.647,1.743l-0.382,1.096l-1.349,1.976l-0.954,1.73l1.016,1.607
						L324.631,104.674z"/>
				</g>
				<g>
					<path fill="#016B4F" d="M310.176,114.041l-1.386-2.174l1.084-1.952l1.33-1.958l0.992-2.716l-0.123-3.682l-0.671-1.552
						l-0.45-0.259l0.917-2.839l0.394,0.117c3.923,1.084,6.885,3.233,10.056,6.127l0.604-0.4c-2.439-3.972-4.557-7.278-7.334-10.345
						l-0.314-0.357l2.094-1.509l0.259,0.277c2.987,3.202,5.284,6.952,7.513,10.579c0.948,1.545,1.934,3.14,2.956,4.673l0.252,0.375
						l-2.266,1.33l-1.583-2.518L310.176,114.041z M309.789,111.836l0.653,1.041l14.33-8.787l1.589,2.531l0.77-0.449
						c-0.936-1.429-1.835-2.906-2.716-4.329c-2.143-3.479-4.354-7.081-7.156-10.166l-0.714,0.518
						c2.747,3.103,4.865,6.453,7.322,10.474l0.216,0.351l-1.847,1.207l-0.253-0.222c-3.067-2.82-5.887-4.932-9.545-6.047
						l-0.462,1.41l0.289,0.363l0.659,1.73l0.123,3.91l-1.096,3.017l-1.349,1.977L309.789,111.836z"/>
				</g>
				<g>
					<polygon fill="#FFFFFF" points="311.509,110.627 313.855,108.189 314.181,106.643 314.335,104.747 314.292,103.029 
						314.033,101.391 313.614,100.221 314.514,100.597 315.776,101.292 317.18,102.198 318.566,103.17 319.754,104.094 
						320.61,104.852 					"/>
				</g>
				<g>
					<path fill="#016B4F" d="M311.736,110.988l-0.53-0.653l2.254-2.352l0.296-1.429l0.154-1.848l-0.043-1.669l-0.252-1.582
						l-0.733-2.008l1.805,0.758l1.305,0.714l1.423,0.917l1.398,0.985l1.201,0.936l1.299,1.152L311.736,110.988z M314.341,100.988
						l0.092,0.259l0.283,1.712l0.037,1.774l-0.154,1.946l-0.351,1.706l5.653-3.584l-0.431-0.382l-1.164-0.911l-1.373-0.961
						l-1.386-0.893L314.341,100.988z"/>
				</g>
				<g>
					<polygon fill="#016B4F" points="308.803,103.471 307.288,103.822 306.456,105.141 306.82,106.735 308.082,107.727 
						309.597,107.419 310.459,106.132 310.077,104.481 					"/>
				</g>
				<g>
					<path fill="#016B4F" d="M307.973,108.184l-1.534-1.207l-0.437-1.909l1.022-1.625l1.878-0.431l1.558,1.232l0.456,1.97
						l-1.065,1.589L307.973,108.184z M307.203,106.496l0.985,0.776l1.152-0.24l0.659-0.985l-0.308-1.324l-0.998-0.788l-1.139,0.265
						l-0.646,1.022L307.203,106.496z"/>
				</g>
				<g>
					<polygon fill="#016B4F" points="325.034,105.263 326.185,107.191 327.503,109.968 325.606,111.002 312.736,118.361 
						313.709,119.98 328.926,111.532 330.237,113.355 331.789,112.542 330.465,110.639 330.514,110.731 328.057,106.828 
						327.688,109.783 327.916,108.841 328.057,108.078 328.131,107.443 328.057,106.828 326.505,104.309 					"/>
				</g>
				<g>
					<path fill="#016B4F" d="M313.56,120.55l-1.423-2.34l0.382-0.222l14.422-8.202l-1.145-2.42l-1.343-2.235l2.186-1.416
						l4.175,6.687v-0.006l1.595,2.297l-2.309,1.219l-1.299-1.823L313.56,120.55z M313.326,118.511l0.542,0.893l15.186-8.436
						l1.306,1.835l0.8-0.412l-0.998-1.441l-0.012,0.006l-1.694-2.697l-0.363,1.625l-0.172-0.03l0.135,0.289l-2.248,1.231
						L313.326,118.511z M325.611,105.396l0.93,1.577l0.844,1.761l0.234-1.81l-1.244-2.02L325.611,105.396z"/>
				</g>
			</g>
		</g>
	</g>
	<g>
		<g>
			<g>
				<g>
					<path fill="#EE2F43" d="M52.427,179.311c0,5.098-4.212,9.286-9.391,9.286s-9.379-4.187-9.379-9.286
						c0-5.123,4.2-9.31,9.379-9.31S52.427,174.188,52.427,179.311"/>
				</g>
				<g>
					<path fill="#EE2F43" d="M55.44,152.455c0,4.452-3.609,8.005-8.086,8.005c-4.452,0-8.061-3.553-8.061-8.005
						c0-4.402,3.609-7.992,8.061-7.992C51.831,144.463,55.44,148.053,55.44,152.455"/>
				</g>
				<g>
					<path fill="#EE2F43" d="M63.066,129.689c0,3.83-3.135,6.958-7.002,6.958c-3.867,0-6.983-3.128-6.983-6.958
						c0-3.811,3.116-6.927,6.983-6.927C59.931,122.762,63.066,125.878,63.066,129.689"/>
				</g>
			</g>
			<g>
				<g>
					<path fill="#EE2F43" d="M346.088,186.033c0,5.148-4.2,9.298-9.416,9.298c-5.148,0-9.342-4.15-9.342-9.298
						c0-5.135,4.194-9.261,9.342-9.261C341.888,176.773,346.088,180.898,346.088,186.033"/>
				</g>
				<g>
					<path fill="#EE2F43" d="M342.6,158.252c0,4.403-3.633,7.999-8.092,7.999c-4.465,0-8.086-3.596-8.086-7.999
						c0-4.402,3.621-8.011,8.086-8.011C338.967,150.241,342.6,153.85,342.6,158.252"/>
				</g>
				<g>
					<path fill="#EE2F43" d="M333.616,134.944c0,3.812-3.129,6.903-7.002,6.903c-3.849,0-6.983-3.091-6.983-6.903
						c0-3.83,3.135-6.927,6.983-6.927C330.487,128.017,333.616,131.115,333.616,134.944"/>
				</g>
			</g>
		</g>
		<g>
			<g>
				<path fill="#EE2F43" d="M190.232,321.657c-70.433,0-127.735-56.703-127.735-126.399c0-69.704,57.301-126.411,127.735-126.411
					c70.441,0,127.748,56.707,127.748,126.411C317.98,264.954,260.673,321.657,190.232,321.657z M190.232,69.739
					c-69.941,0-126.843,56.308-126.843,125.519c0,69.204,56.902,125.506,126.843,125.506c69.949,0,126.856-56.302,126.856-125.506
					C317.089,126.047,260.181,69.739,190.232,69.739z"/>
			</g>
			<g>
				<g>
					<g>
						<path fill="#016B4F" d="M152.154,246.418c-33.414-23.029-41.592-68.497-18.321-101.526l60.479,41.711"/>
					</g>
					<g>
						<path fill="#016B4F" d="M138.695,137.446c23.315-32.986,69.273-41.077,102.669-17.943l-42.276,59.753"/>
					</g>
				</g>
				<g>
					<g>
						<path fill="#EE2F43" d="M235.055,141.066c33.426,22.956,41.715,68.392,18.518,101.508l-60.547-41.613"/>
					</g>
					<g>
						<path fill="#EE2F43" d="M187.66,208.679l60.781,41.293c-23.05,33.208-68.947,41.619-102.503,18.854"/>
					</g>
				</g>
			</g>
			<g>
				<g>
					<g>
						<path fill="#016B4F" d="M219.942,301.812c0,0-2.648-5.08-5.136-3.497c0.443-2.013,10.389-15.578,27.632-11.693
							C241.12,287.317,222.984,290.359,219.942,301.812"/>
					</g>
					<g>
						<path fill="#016B4F" d="M239.812,282.991c0,0,2.629,1.589,5.105-6.662c2.796-7.95,4.834-11.422,6.312-12.882
							c1.453-1.441,5.536-4.187,5.536-4.187l1.33-0.296c0,0-1.601,3.344-1.891,3.762c-0.296,0.456-2.051,6.792-2.198,8.417
							c-0.148,1.601-1.897,5.763-4.551,7.518c-1.145,1.311-2.026,2.728-2.026,2.728s-0.739,0.868,0.566,0.868
							c1.318,0,4.551,0.997,5.863,2.051c1.306,1.016,6.281,1.699,7.722,1.582c1.49-0.154,4.268-0.449,4.994-0.72
							c-0.881,1.57-2.051,2.943-7.882,4.951c-2.944,0-6.737-0.345-7.925-1.324c-1.164-1.01-4.822-3.917-7.31-4.077
							C240.976,284.58,238.352,284.155,239.812,282.991"/>
					</g>
					<g>
						<path fill="#016B4F" d="M265.184,267.32c0,0,3.67-1.539,3.141-8.479c-0.234-6.854,1.521-8.491,2.205-10.006
							c0.677-1.515,3.036-4.341,3.036-4.341l0.924-0.554c0,0-0.253,2.956-0.376,3.381c-0.062,0.407-0.074,4.132-0.216,7.167
							c-0.105,1.262-0.277,4.557-1.755,6.663c-0.505,1.324-1.035,2.032-1.035,2.032s-0.917,1.638,0.074,1.269
							c0.973-0.376,3.689-0.56,4.994-0.148c1.293,0.4,5.395,0.351,6.454-0.166c1.053-0.542,3.091-1.539,3.541-1.952
							c-0.197,1.429-1.891,4.175-5.413,6.312c-2.223,0.856-5.992,0.905-7.174,0.474c-1.145-0.437-3.633-1.324-5.53-0.751
							C266.114,268.848,264.421,268.657,265.184,267.32"/>
					</g>
					<g>
						<path fill="#016B4F" d="M283.544,248.102c0,0,1.244-3.497,0.585-8.503c-1.669-5.301-0.369-8.405-0.179-9.692
							c0.265-1.589,0-0.443,0.918-3.497l0.856-1.866c0,0,0.456,2.389,0.474,2.716c0.043,0.339,1.164,3.405,1.736,5.813
							c0.24,1.022,0.394,3.861-0.302,5.807c-0.117,1.133,0,2.211,0,2.211s-0.055,0.757,0.653,0.216
							c0.696-0.493,1.102-0.985,3.147-2.155c0.942-0.56,2.636-1.964,3.344-2.629c0.733-0.622,2.685-1.539,2.956-2.007
							c0.135,1.201,0.135,4.366-2.34,7.672c-1.62,2.032-3.375,2.032-5.007,2.611c-2.082,0.72-2.359,1.059-3.744,1.934
							C285.238,247.597,283.23,249.278,283.544,248.102"/>
					</g>
					<g>
						<path fill="#016B4F" d="M274.488,259.707c0,0,2.685-4.175,1.441-10.283c-0.918-6.071,0.326-8.313,1.188-9.532
							c0.868-1.361,4.526-4.249,4.526-4.249l-0.61,2.888c0,0-0.388,1.539-0.431,1.884c-0.025,0.413,0.105,3.251,0.271,5.979
							c0.111,1.121-0.049,4.187-1.225,6.182c-0.289,1.274-0.376,2.488-0.376,2.488s-0.172,0.782,0.702,0.339
							c0.85-0.468,3.609-2.358,4.736-2.802c2.987-1.121,3.067-0.881,4.822-1.471c1.035-0.308,2.137-0.598,2.537-1.047
							c-0.049,1.324-1.293,3.99-4.268,6.379c-1.921,1.022-3.849,1.644-6.3,1.644c-1.158,0-2.309,0.64-4.021,1.422
							C275.799,260.286,273.909,260.951,274.488,259.707"/>
					</g>
					<g>
						<path fill="#016B4F" d="M290.111,234.356c0,0-0.425-5.917-0.998-8.227c-2.79-5.363-1.244-10.597-1.09-11.835
							c0.351-2.358,1.737-4.402,1.737-4.402l0.222,3.066c0,0,0.616,2.309,0.696,2.598c1.059,2.167,0.234,0.708,1.022,2.802
							c0.32,0.881,1.139,2.192,0.745,3.996c0.068,1.164-0.228,2.081,0.025,3.116c0,0,0.043,0.659,0.603,0.123
							c0.56-0.548,2.112-3.017,2.894-3.602c2.26-1.693,4.163-3.473,4.705-4.101c0.548-0.696,1.817-3.024,2.032-3.473
							c0.289,0.985-0.191,7.167-1.915,9.68c-1.312,1.878-3.171,4.224-5.124,4.778c-0.887,0.24-2.106,1.182-3.221,2.167
							C291.324,232.023,289.982,235.477,290.111,234.356"/>
					</g>
					<g>
						<path fill="#016B4F" d="M294.79,219.046c0,0-1.287-7.53-3.473-12.038c-2.765-4.138-2.063-7.155-2.205-8.381
							c-0.166-1.207,1.133-4.631,1.133-4.631l0.757,2.285c0,0,1.072,1.767,1.152,2.044c0.135,0.302,1.447,1.97,2.506,3.923
							c0.431,0.837,1.01,2.765,0.874,4.612c0.179,1.034,0.326,2.229,0.326,2.229s1.096-0.591,0.61,0
							c-0.142,0.228,1.145-4.735,2.574-6.127c1.983-2.007,4.391-4.507,4.828-5.191c0.468-0.733,1.478-3.608,1.595-4.052
							c1.035,1.896,1.373,7.814,0,10.572c-1.33,2.882-2.494,4.735-5.986,7.753c-0.702,0.554-1.361,1.65-2.334,2.82
							C296.139,215.955,294.79,220.166,294.79,219.046"/>
					</g>
					<g>
						<path fill="#016B4F" d="M296.715,202.251c0,0-1.386-7.845-4.533-11.133c-2.907-3.423-3.584-7.5-3.849-8.578
							c-0.252-1.034,0.493-4.224,0.493-4.224l1.01,1.213c0,0,0.61,1.484,0.727,1.73c0.117,0.289,2.328,2.851,3.486,4.508
							c0.487,0.64,1.558,2.617,1.62,4.316c0.302,0.893,0.874,2.334,0.874,2.334s0.511,2.346,0.893,1.749
							c0.339-0.616,1.133-7.069,1.614-7.832c1.589-2.746,2.248-5.123,2.482-5.807c0.573-1.737,1.657-3.491,1.737-3.886
							c1.133,1.539,1.792,8.695,0.868,11.275c-0.733,2.038-0.326,2.266-2.605,5.369c-0.505,0.647-0.739,0.881-2.051,3.042
							C298.106,198.563,296.825,203.255,296.715,202.251"/>
					</g>
					<g>
						<path fill="#016B4F" d="M295.572,174.734c0.098,0.61,0.308-4.045,0.696-4.747c1.09-1.995,1.872-3.738,2.045-4.347
							c0.185-0.69,1.016-4.55,1.016-4.92c1.238,1.244,2.605,6.084,2.205,8.534c-0.505,1.336-0.776,5.283-2.79,8.411
							c-0.394,0.634-0.776,2.827-1.281,3.892c-0.474,1.121-0.252,3.996-0.53,3.14c0,0-2.205-5.302-5.456-7.789
							c-3.104-2.58-4.323-6.078-4.717-6.989c-0.388-0.942-0.185-2.524-0.185-2.524s2.962,2.161,4.101,3.03
							c1.188,0.85,2.512,2.032,2.962,2.315C293.638,172.739,295.332,173.392,295.572,174.734"/>
					</g>
					<g>
						<path fill="#016B4F" d="M253.619,277.134c0,0,2.968-1.65,3.011-8.633c0.333-6.798,3.122-9.242,3.941-10.659
							c0.794-1.49,2.937-3.233,2.937-3.233l3.646-1.564c0,0-2.205,4.218-2.34,4.631c-0.431,1.287-0.53,3.953-0.874,5.209
							c-0.881,3.183-1.447,5.419-3.067,7.371c-0.622,1.274-0.973,2.598-0.973,2.598s-0.369,0.813,0.665,0.554
							c1.016-0.314,4.157-0.031,5.419,0.487c1.275,0.499,4.304,0.726,5.419,0.271c1.109-0.462,3.011-0.954,3.504-1.311
							c-0.289,1.416-0.154,1.97-4.231,4.84c-2.266,0.69-5.462,1.379-6.62,0.862c-1.139-0.511-4.723-0.942-6.712-0.499
							C255.399,278.507,251.07,279.388,253.619,277.134"/>
					</g>
					<g>
						<path fill="#016B4F" d="M294.333,169.833c0,0-2.316-3.343-3.948-4.193c-1.576-0.881-5.24-4.323-6.257-6.232
							c-1.028-1.829-1.176-4.452-1.176-5.03c0-0.598,0.45-0.893,0.881,0c0.413,0.85,3.356,2.875,4.101,3.584
							c0.72,0.726,3.498,3.19,3.935,4.2c-0.135-2.888,0.573-4.581,0.745-6.072c0.142-1.435,1.022-4.199,0.419-6.508
							c-0.591-2.309-0.142-3.621-0.142-3.621s1.767,1.164,2.777,3.898c1.047,2.765,1.176,5.228,1.047,6.539
							c-0.173,1.324-2.205,7.075-2.057,8.817C294.777,166.927,294.333,169.833,294.333,169.833"/>
					</g>
					<g>
						<path fill="#016B4F" d="M289.534,156.268c0,0-2.051-2.057-3.812-2.783c-1.755-0.72-5.511-3.196-5.98-3.627
							c-0.874-0.708-3.756-3.19-3.184-4.606c0,0,2.211,1.003,3.375,1.287c1.158,0.302,3.67,1.176,4.114,1.453
							c0.437,0.289,2.125,1.589,2.125,1.589s0-2.346-0.135-4.051c-0.154-1.564-0.154-1.423,0-4.908c0.055-1.669,0-4.212,0-4.212
							s2.34,1.035,3.079,5.197c0.721,4.224,0.721,6.108,0.721,6.108s-0.443,4.316-0.443,5.64
							C289.393,154.655,289.534,156.268,289.534,156.268"/>
					</g>
					<g>
						<path fill="#016B4F" d="M283.4,141.608c0.554,0.302-0.302,0.899-0.302,0.899s-3.8-0.745-5.278-0.899
							c-1.447-0.123-3.054-1.866-3.923-2.45c-0.88-0.554-2.636-1.712-1.927-2.02c0.751-0.289,3.091-0.136,3.504-0.136h2.494
							c0.419,0,1.478,0.443,1.478,0.443s-0.88-2.635-0.88-3.048c0-0.437-0.302-2.327-0.302-2.759v-3.479
							c0,0-0.296-2.451,0.567-1.262c0.911,1.127,2.377,2.574,2.666,3.024c0,0,1.17,3.75,1.306,7.789
							C282.957,141.762,283.4,141.608,283.4,141.608"/>
					</g>
					<g>
						<path fill="#016B4F" d="M276.809,134.398c0,0-5.259,0.283-6.281,0c-1.022-0.314-3.375-1.896-3.824-3.639
							c1.349,0,3.239,0.141,4.101,0.141h2.192c0,0-1.01-1.582-1.01-3.159c0-1.613,0.154-4.199-0.721-5.523
							c-0.591-1.152-0.16-1.706,0.874-0.696c1.022,1.01,2.624,3.042,3.368,4.476c0.721,1.459,0.135,2.752,0.29,3.916
							C275.928,131.067,275.645,134.238,276.809,134.398"/>
					</g>
					<g>
						<path fill="#016B4F" d="M269.508,127.458c0,0-6.306-0.135-7.033-0.56c-0.72-0.468-2.328-3.356-3.073-4.495
							c-0.721-1.182,1.903-0.271,3.368-0.185c1.459,0.185,3.368,0.314,3.368,0.314s2.925,3.005,3.498,3.596
							C270.228,126.732,270.388,127.582,269.508,127.458"/>
					</g>
				</g>
				<g>
					<g>
						<path fill="#016B4F" d="M156.593,299.858c0,0,2.814-4.975,5.234-3.288c-0.388-2.032-9.847-15.973-27.213-12.617
							C135.883,284.723,153.92,288.356,156.593,299.858"/>
					</g>
					<g>
						<path fill="#016B4F" d="M137.36,280.429c0,0-2.704,1.478-4.896-6.816c-2.512-8.072-4.44-11.607-5.863-13.066
							c-1.404-1.539-5.395-4.384-5.395-4.384l-1.312-0.351c0,0,1.503,3.368,1.768,3.836c0.302,0.407,1.823,6.829,1.921,8.455
							c0.086,1.601,1.7,5.868,4.274,7.648c1.127,1.348,1.94,2.851,1.94,2.851s0.696,0.856-0.603,0.794
							c-1.306-0.006-4.569,0.893-5.906,1.866c-1.367,0.961-6.337,1.539-7.796,1.312c-1.465-0.185-4.225-0.542-4.951-0.843
							c0.813,1.613,1.934,2.992,7.716,5.221c2.913,0.068,6.725-0.135,7.938-1.108c1.195-0.967,4.97-3.707,7.458-3.812
							C136.134,281.969,138.77,281.618,137.36,280.429"/>
					</g>
					<g>
						<path fill="#016B4F" d="M112.547,263.941c0,0-3.621-1.718-2.876-8.645c0.443-6.773-1.213-8.491-1.854-10.03
							c-0.647-1.515-2.901-4.44-2.901-4.44l-0.881-0.604c0,0,0.154,2.974,0.222,3.393c0.074,0.443-0.037,4.138,0.025,7.18
							c0.012,1.287,0.098,4.606,1.515,6.712c0.462,1.348,0.967,2.057,0.967,2.057s0.856,1.718-0.117,1.262
							c-0.973-0.382-3.701-0.634-5.025-0.283c-1.287,0.332-5.364,0.154-6.405-0.4c-1.047-0.53-3.024-1.65-3.504-2.094
							c0.166,1.478,1.774,4.255,5.222,6.552c2.161,0.905,5.943,1.077,7.131,0.665c1.201-0.363,3.695-1.194,5.579-0.542
							C111.555,265.419,113.243,265.228,112.547,263.941"/>
					</g>
					<g>
						<path fill="#016B4F" d="M94.837,244.109c0,0-1.152-3.522-0.296-8.553c1.854-5.203,0.646-8.356,0.456-9.692
							c-0.166-1.564,0.025-0.419-0.727-3.485l-0.838-1.89c0,0-0.536,2.359-0.536,2.697c-0.043,0.332-1.312,3.331-1.94,5.732
							c-0.253,1.022-0.548,3.824,0.111,5.807c0.049,1.108-0.111,2.223-0.111,2.223s0.049,0.764-0.64,0.209
							c-0.671-0.493-1.053-1.047-3.079-2.278c-0.918-0.536-2.58-2.051-3.27-2.703c-0.69-0.696-2.599-1.669-2.839-2.118
							c-0.209,1.195-0.296,4.298,2.069,7.74c1.546,2.069,3.301,2.1,4.896,2.783c2.063,0.825,2.334,1.121,3.701,2.026
							C93.149,243.53,95.114,245.298,94.837,244.109"/>
					</g>
					<g>
						<path fill="#016B4F" d="M103.502,255.991c0,0-2.525-4.267-1.121-10.345c1.145-5.997-0.055-8.307-0.838-9.557
							c-0.844-1.348-4.378-4.341-4.378-4.341l0.493,2.931c0,0,0.332,1.515,0.351,1.841c0.031,0.425-0.191,3.233-0.462,5.955
							c-0.136,1.139-0.062,4.181,0.998,6.238c0.265,1.231,0.326,2.444,0.326,2.444s0.142,0.831-0.708,0.345
							c-0.874-0.493-3.516-2.488-4.656-2.98c-2.95-1.201-3.017-0.924-4.76-1.552c-1.035-0.388-2.143-0.702-2.494-1.127
							c-0.037,1.262,1.139,3.99,4.04,6.465c1.891,1.084,3.769,1.761,6.244,1.853c1.158,0.062,2.291,0.684,3.947,1.539
							C102.178,256.57,104.032,257.266,103.502,255.991"/>
					</g>
					<g>
						<path fill="#016B4F" d="M88.733,230.152c0,0,0.634-5.911,1.299-8.208c2.968-5.265,1.613-10.56,1.453-11.755
							c-0.259-2.389-1.595-4.501-1.595-4.501l-0.296,3.048c0,0-0.671,2.358-0.801,2.598c-1.108,2.143-0.265,0.733-1.108,2.771
							c-0.357,0.874-1.226,2.137-0.887,3.978c-0.098,1.145,0.148,2.081-0.129,3.091c0,0-0.08,0.683-0.61,0.111
							c-0.548-0.579-1.983-3.104-2.783-3.732c-2.174-1.73-4.027-3.615-4.514-4.243c-0.567-0.659-1.743-3.103-1.927-3.491
							c-0.345,0.973-0.099,7.13,1.552,9.729c1.263,1.915,3.061,4.298,4.994,4.945c0.862,0.24,2.026,1.225,3.116,2.272
							C87.587,227.745,88.843,231.285,88.733,230.152"/>
					</g>
					<g>
						<path fill="#016B4F" d="M84.565,214.656c0,0,1.583-7.444,3.917-11.921c2.876-4.009,2.285-7.069,2.463-8.27
							c0.179-1.213-0.979-4.655-0.979-4.655l-0.825,2.285c0,0-1.127,1.681-1.238,1.982c-0.123,0.32-1.503,1.94-2.617,3.836
							c-0.474,0.801-1.133,2.734-1.035,4.569c-0.228,1.041-0.4,2.192-0.4,2.192s-1.108-0.671-0.628,0
							c0.16,0.228-0.973-4.766-2.365-6.182c-1.915-2.057-4.225-4.679-4.631-5.394c-0.462-0.751-1.373-3.639-1.459-4.107
							c-1.109,1.854-1.657,7.795-0.357,10.597c1.201,2.894,2.303,4.803,5.709,7.925c0.69,0.597,1.306,1.743,2.266,2.875
							C83.321,211.528,84.522,215.814,84.565,214.656"/>
					</g>
					<g>
						<path fill="#016B4F" d="M83.223,197.831c0,0,1.638-7.771,4.883-10.979c3.03-3.344,3.849-7.371,4.138-8.411
							c0.326-1.041-0.351-4.255-0.351-4.255l-1.01,1.182c0,0-0.671,1.453-0.794,1.718c-0.142,0.24-2.451,2.771-3.658,4.341
							c-0.524,0.671-1.657,2.598-1.792,4.255c-0.32,0.893-0.893,2.321-0.893,2.321s-0.622,2.346-0.955,1.718
							c-0.351-0.628-0.93-7.106-1.349-7.863c-1.515-2.801-2.1-5.185-2.316-5.868c-0.499-1.755-1.558-3.571-1.595-3.965
							c-1.207,1.527-2.118,8.621-1.269,11.244c0.665,2.051,0.271,2.285,2.469,5.443c0.462,0.665,0.69,0.893,1.952,3.091
							C81.961,194.131,83.082,198.841,83.223,197.831"/>
					</g>
					<g>
						<path fill="#016B4F" d="M85.287,170.363c-0.117,0.604-0.173-4.051-0.524-4.753c-1.016-2.051-1.73-3.812-1.878-4.421
							c-0.191-0.708-0.887-4.563-0.862-4.92c-1.312,1.139-2.839,6.003-2.488,8.442c0.456,1.361,0.585,5.289,2.488,8.485
							c0.37,0.653,0.671,2.826,1.139,3.965c0.45,1.102,0.117,3.978,0.375,3.085c0,0,2.408-5.203,5.783-7.562
							c3.19-2.5,4.526-5.96,4.951-6.841c0.437-0.893,0.216-2.525,0.216-2.525s-2.999,2.038-4.194,2.894
							c-1.176,0.843-2.537,1.952-2.981,2.217C87.313,168.43,85.564,169.027,85.287,170.363"/>
					</g>
					<g>
						<path fill="#016B4F" d="M123.757,274.115c0,0-2.913-1.742-2.716-8.694c-0.098-6.829-2.827-9.384-3.596-10.862
							c-0.745-1.49-2.796-3.27-2.796-3.27l-3.615-1.693c0,0,2.063,4.274,2.186,4.711c0.388,1.275,0.388,3.935,0.715,5.222
							c0.764,3.183,1.232,5.474,2.783,7.438c0.61,1.318,0.905,2.685,0.905,2.685s0.351,0.819-0.671,0.474
							c-1.016-0.327-4.2-0.148-5.432,0.283c-1.305,0.499-4.348,0.628-5.431,0.154c-1.072-0.499-3.005-1.041-3.492-1.472
							c0.277,1.459,0.111,1.983,4.089,5.024c2.254,0.708,5.413,1.57,6.583,1.096c1.176-0.517,4.748-0.794,6.725-0.277
							C121.922,275.452,126.214,276.412,123.757,274.115"/>
					</g>
					<g>
						<path fill="#016B4F" d="M86.676,165.528c0,0,2.463-3.257,4.077-4.051c1.632-0.85,5.413-4.163,6.503-6.016
							c1.09-1.854,1.349-4.458,1.349-5.025c0.012-0.579-0.431-0.881-0.899-0.037c-0.45,0.856-3.436,2.765-4.218,3.454
							c-0.739,0.708-3.602,3.11-4.071,4.089c0.228-2.894-0.425-4.655-0.523-6.108c-0.086-1.435-0.881-4.212-0.222-6.496
							c0.665-2.297,0.265-3.62,0.265-3.62s-1.78,1.096-2.907,3.811c-1.108,2.716-1.324,5.185-1.256,6.472
							c0.111,1.287,1.964,7.143,1.78,8.873C86.337,162.64,86.676,165.528,86.676,165.528"/>
					</g>
					<g>
						<path fill="#016B4F" d="M91.956,152.095c0,0,2.106-1.982,3.886-2.623c1.792-0.659,5.604-3.005,6.121-3.417
							c0.911-0.708,3.836-3.073,3.307-4.557c0,0-2.205,0.967-3.393,1.213c-1.188,0.234-3.713,1.016-4.157,1.312
							c-0.45,0.289-2.18,1.527-2.18,1.527s0.074-2.364,0.29-4.051c0.191-1.589,0.191-1.447,0.172-4.908
							c-0.006-1.644,0.142-4.206,0.142-4.206s-2.377,0.948-3.252,5.123c-0.862,4.162-0.936,6.016-0.936,6.016s0.289,4.36,0.24,5.702
							C92.165,150.482,91.956,152.095,91.956,152.095"/>
					</g>
					<g>
						<path fill="#016B4F" d="M98.601,137.662c-0.61,0.277,0.271,0.881,0.271,0.881s3.8-0.579,5.265-0.665
							c1.478-0.129,3.141-1.804,4.034-2.371c0.887-0.505,2.679-1.625,1.946-1.927c-0.702-0.333-3.042-0.246-3.467-0.246
							c-0.443-0.05-2.063-0.086-2.5-0.111c-0.431,0-1.478,0.412-1.478,0.412s0.973-2.568,0.992-3.023
							c0-0.431,0.369-2.315,0.376-2.74c0-0.413,0.111-3.448,0.111-3.448s0.394-2.482-0.53-1.336
							c-0.911,1.102-2.439,2.537-2.728,2.956c0,0-1.312,3.732-1.589,7.734C99.026,137.829,98.601,137.662,98.601,137.662"/>
					</g>
					<g>
						<path fill="#016B4F" d="M105.397,130.687c0,0,5.247,0.425,6.293,0.21c1.047-0.253,3.412-1.798,3.923-3.516
							c-1.312-0.062-3.215,0.062-4.095,0.012c-0.893-0.012-2.192-0.074-2.192-0.074s1.078-1.545,1.127-3.152
							c0.062-1.595,0-4.181,0.93-5.443c0.597-1.151,0.203-1.724-0.868-0.757c-1.047,0.948-2.74,2.943-3.498,4.354
							c-0.794,1.453-0.234,2.765-0.431,3.891C106.394,127.381,106.585,130.565,105.397,130.687"/>
					</g>
					<g>
						<path fill="#016B4F" d="M112.944,123.988c0,0,6.287,0.074,7.051-0.388c0.733-0.382,2.439-3.208,3.196-4.372
							c0.782-1.121-1.89-0.333-3.35-0.247c-1.472,0.129-3.375,0.185-3.375,0.185s-3.018,2.962-3.621,3.528
							C112.248,123.219,112.051,124.075,112.944,123.988"/>
					</g>
				</g>
			</g>
		</g>
	</g>
</g>
</svg>
